<svg xmlns="http://www.w3.org/2000/svg" version="1.1" xmlns:xlink="http://www.w3.org/1999/xlink" xmlns:svgjs="http://svgjs.dev/svgjs" width="2000" height="1247" viewBox="0 0 2000 1247"><g transform="matrix(1,0,0,1,-1.2121212121212466,0.504858299595071)"><svg viewBox="0 0 396 247" data-background-color="#000000" preserveAspectRatio="xMidYMid meet" height="1247" width="2000" xmlns="http://www.w3.org/2000/svg" xmlns:xlink="http://www.w3.org/1999/xlink"><g id="tight-bounds" transform="matrix(1,0,0,1,0.2400000000000091,-0.09999999999999432)"><svg viewBox="0 0 395.52 247.2" height="247.2" width="395.52"><g><svg></svg></g><g><svg viewBox="0 0 395.52 247.2" height="247.2" width="395.52"><mask id="00916ece-7322-4f5c-a1f6-fe838e0fb399"><rect width="640" height="400" fill="white"></rect><g transform="matrix(1,0,0,1,47.08571428571429,104.86820029445944)"><svg viewBox="0 0 301.3485714285714 37.463599411081105" height="37.463599411081105" width="301.3485714285714"><g><svg viewBox="0 0 301.3485714285714 37.463599411081105" height="37.463599411081105" width="301.3485714285714"><g><svg viewBox="0 0 301.3485714285714 37.463599411081105" height="37.463599411081105" width="301.3485714285714"><g><svg viewBox="0 0 301.3485714285714 37.463599411081105" height="37.463599411081105" width="301.3485714285714"><g id="SvgjsG1025"><svg viewBox="0 0 301.3485714285714 37.463599411081105" height="37.463599411081105" width="301.3485714285714" id="SvgjsSvg1024"><g><svg viewBox="0 0 301.3485714285714 22.328075322672223" height="22.328075322672223" width="301.3485714285714"><g transform="matrix(1,0,0,1,0,0)"><svg width="301.3485714285714" viewBox="-4.85 -42.9 843.7900000000001 63.449999999999996" height="22.328075322672223" data-palette-color="#ffffff"><path d="M26-23.8L22.7-23.8Q22.25-26.6 21.1-28.48 19.95-30.35 18.18-31.3 16.4-32.25 14.05-32.2L14.05-32.2Q11.9-32.2 10.28-31 8.65-29.8 8.65-27.9L8.65-27.9Q8.65-26.35 9.53-25.2 10.4-24.05 12.2-23.05 14-22.05 16.75-20.9L16.75-20.9Q18.65-20.15 20.65-19.15 22.65-18.15 24.35-16.78 26.05-15.4 27.1-13.58 28.15-11.75 28.15-9.3L28.15-9.3Q28.15-6.35 26.55-4.05 24.95-1.75 22.08-0.48 19.2 0.8 15.35 0.8L15.35 0.8Q13.35 0.8 11.03 0.18 8.7-0.45 6.65-1.65L6.65-1.65 6.8 0.45 2.95 0.45 2.95-11.25 6.25-11.25Q6.95-7.05 9.47-4.93 12-2.8 15.5-2.8L15.5-2.8Q17.3-2.8 18.65-3.45 20-4.1 20.75-5.18 21.5-6.25 21.5-7.5L21.5-7.5Q21.5-9.25 20.28-10.4 19.05-11.55 17.23-12.35 15.4-13.15 13.5-13.9L13.5-13.9Q11.1-14.9 9.03-16.03 6.95-17.15 5.4-18.6 3.85-20.05 3-21.93 2.15-23.8 2.15-26.25L2.15-26.25Q2.15-27.8 2.75-29.48 3.35-31.15 4.7-32.58 6.05-34 8.3-34.9 10.55-35.8 13.85-35.8L13.85-35.8Q15.85-35.8 18.23-35.2 20.6-34.6 22.3-33.4L22.3-33.4 22.1-35.45 26-35.45 26-23.8ZM36.75 13.55L36.75 13.55Q34.85 13.55 33.52 12.43 32.2 11.3 32.2 9.45L32.2 9.45Q32.2 8.1 33.07 7.08 33.95 6.05 35.35 6L35.35 6Q36.45 5.95 37.22 6.73 38 7.5 38 8.85L38 8.85Q38 9 38 9.15 38 9.3 37.95 9.5L37.95 9.5Q38.05 9.5 38.2 9.45L38.2 9.45Q38.65 9.3 39.17 8.63 39.7 7.95 40.2 6.85L40.2 6.85Q40.75 5.7 41.27 4.28 41.8 2.85 42.2 1.3L42.2 1.3 34.3-14.55Q32.9-17.35 32.47-18.78 32.05-20.2 31.9-21.3L31.9-21.3 29.6-21.2 29.6-25 42.05-25 42.05-21.8 42.05-21.8Q40.2-21.6 40.02-20.4 39.85-19.2 40.45-17.9L40.45-17.9 45.35-6.7Q45.85-8 46.65-10.73 47.45-13.45 48.55-16.65L48.55-16.65Q48.75-17.3 49.07-18.18 49.4-19.05 49.8-19.93 50.2-20.8 50.65-21.35L50.65-21.35 47.8-21.2 47.8-25 56.7-25 56.7-21.8Q55.15-21.45 54.12-19.9 53.1-18.35 52.3-16.1L52.3-16.1 46.05 1.75Q44.65 5.8 43.4 8.43 42.15 11.05 40.6 12.3 39.05 13.55 36.75 13.55ZM70.34 0.8L70.34 0.8Q66.69 0.8 63.9-0.83 61.09-2.45 59.55-5.43 57.99-8.4 57.99-12.45L57.99-12.45Q57.99-15.95 59.55-19 61.09-22.05 63.92-23.93 66.75-25.8 70.5-25.8L70.5-25.8Q72.59-25.8 74.59-25.23 76.59-24.65 78.22-23.25 79.84-21.85 80.82-19.45 81.8-17.05 81.75-13.45L81.75-13.45 65.34-13.15Q65.34-10.45 66.02-8.3 66.69-6.15 68.25-4.9 69.8-3.65 72.39-3.65L72.39-3.65Q73.39-3.65 74.67-4 75.94-4.35 77.27-5.18 78.59-6 79.75-7.4L79.75-7.4 82-5.3Q80.19-2.75 78.15-1.43 76.09-0.1 74.07 0.35 72.05 0.8 70.34 0.8ZM65.64-16.65L65.64-16.65 74.84-16.65Q74.8-18.75 74.27-19.98 73.75-21.2 72.84-21.75 71.94-22.3 70.75-22.3L70.75-22.3Q68.55-22.3 67.3-20.73 66.05-19.15 65.64-16.65ZM107.64 0.5L102.99 0.5Q101.29-3.65 99.62-7.75 97.94-11.85 96.24-15.95L96.24-15.95Q95.84-16.9 95.22-18.63 94.59-20.35 93.92-22.6 93.24-24.85 92.69-27.25L92.69-27.25Q92.79-24.45 92.84-21.98 92.89-19.5 92.84-17.25L92.84-17.25Q92.84-16.15 92.84-15 92.84-13.85 92.82-12.73 92.79-11.6 92.79-10.48 92.79-9.35 92.79-8.2L92.79-8.2Q92.79-6.85 92.72-5.6 92.64-4.35 92.54-3.7L92.54-3.7Q93.39-3.8 94.62-3.83 95.84-3.85 96.34-3.85L96.34-3.85 96.34 0 84.94 0 84.94-3.3Q86.09-3.35 86.87-3.6 87.64-3.85 88.07-4.75 88.49-5.65 88.49-7.65L88.49-7.65 88.79-26.8Q88.84-28.15 88.89-29.4 88.94-30.65 88.99-31.3L88.99-31.3Q88.19-31.25 86.99-31.23 85.79-31.2 85.24-31.15L85.24-31.15 85.24-35 96.29-35 103.84-15.65Q104.29-14.5 104.84-12.98 105.39-11.45 105.89-10.03 106.39-8.6 106.64-7.75L106.64-7.75 106.69-7.75Q107.34-9.5 107.89-11.15 108.44-12.8 109.04-14.35L109.04-14.35Q110.99-19.55 112.92-24.7 114.84-29.85 116.79-35L116.79-35 128.34-35 128.34-31.7Q127.24-31.65 126.39-31.4 125.54-31.15 125.12-30.28 124.69-29.4 124.74-27.35L124.74-27.35 125.49-8.2Q125.59-6.85 125.49-5.6 125.39-4.35 125.29-3.7L125.29-3.7Q126.14-3.8 127.37-3.83 128.59-3.85 129.09-3.85L129.09-3.85 129.09 0 115.19 0 115.19-3.3Q116.34-3.35 117.17-3.6 117.99-3.85 118.42-4.75 118.84-5.65 118.74-7.65L118.74-7.65 118.34-18.25Q118.34-18.85 118.24-20.33 118.14-21.8 118.07-23.58 117.99-25.35 117.94-26.9L117.94-26.9Q117.79-26.55 117.64-26.23 117.49-25.9 117.39-25.55L117.39-25.55 107.64 0.5ZM162.84-23.7L159.54-23.7Q159.54-26.4 158.79-28.18 158.04-29.95 156.66-30.83 155.29-31.7 153.39-31.65L153.39-31.65 150.99-31.65 150.99-8.2Q150.99-6.85 150.94-5.6 150.89-4.35 150.79-3.7L150.79-3.7Q151.64-3.8 152.97-3.83 154.29-3.85 154.79-3.85L154.79-3.85 154.79 0 140.19 0 140.19-3.3Q141.34-3.35 142.12-3.6 142.89-3.85 143.31-4.75 143.74-5.65 143.74-7.65L143.74-7.65 143.74-31.6 141.44-31.6Q138.59-31.55 136.94-29.65 135.29-27.75 135.29-23.7L135.29-23.7 131.99-23.7 132.24-35 162.54-35 162.84-23.7ZM186.49-12.05L183.19-12.05Q183.19-14.15 182.54-15.08 181.89-16 180.76-16.25 179.64-16.5 178.29-16.45L178.29-16.45 176.99-16.4 176.99-8.2Q176.99-6.85 176.94-5.65 176.89-4.45 176.79-3.8L176.79-3.8 183.49-3.8Q184.99-3.8 186.39-4.48 187.79-5.15 188.69-6.73 189.59-8.3 189.59-11L189.59-11 192.84-11 192.59 0 166.19 0 166.19-3.3Q167.34-3.35 168.11-3.6 168.89-3.85 169.31-4.75 169.74-5.65 169.74-7.65L169.74-7.65 169.74-26.8Q169.74-28.15 169.81-29.4 169.89-30.65 169.94-31.3L169.94-31.3Q169.14-31.25 167.94-31.23 166.74-31.2 166.19-31.15L166.19-31.15 166.19-35 191.19-35 191.49-25.3 188.19-25.3Q188.19-28.05 187.24-29.45 186.29-30.85 184.89-31.33 183.49-31.8 182.14-31.75L182.14-31.75 180.34-31.7Q179.29-31.7 178.54-31.43 177.79-31.15 177.39-30.23 176.99-29.3 176.99-27.35L176.99-27.35 176.99-19.85 182.84-19.85 182.64-24.2 186.49-24.2 186.49-12.05ZM226.44-23.8L223.19-23.8Q222.53-27.95 220.41-30.05 218.28-32.15 214.78-32.2L214.78-32.2Q212.19-32.2 210.23-31 208.28-29.8 207.01-27.8 205.73-25.8 205.11-23.25 204.48-20.7 204.48-18L204.48-18Q204.48-13.7 205.71-10.38 206.94-7.05 209.28-5.15 211.63-3.25 214.98-3.25L214.98-3.25Q218.13-3.25 221.23-4.88 224.33-6.5 226.44-9.4L226.44-9.4 228.83-7.2Q226.38-3.85 223.69-2.13 220.98-0.4 218.41 0.2 215.83 0.8 213.78 0.8L213.78 0.8Q209.94 0.8 206.78-0.58 203.63-1.95 201.36-4.38 199.08-6.8 197.86-10.03 196.63-13.25 196.63-17L196.63-17Q196.63-20.4 197.73-23.75 198.83-27.1 201.01-29.83 203.19-32.55 206.48-34.18 209.78-35.8 214.13-35.8L214.13-35.8Q216.08-35.8 218.41-35.18 220.73-34.55 222.78-33.35L222.78-33.35 222.58-35.45 226.44-35.45 226.44-23.8ZM246.13 0L231.78 0 231.78-3.3Q232.93-3.35 233.71-3.6 234.48-3.85 234.91-4.75 235.33-5.65 235.33-7.65L235.33-7.65 235.33-26.8Q235.33-28.15 235.41-29.4 235.48-30.65 235.53-31.3L235.53-31.3Q234.73-31.25 233.53-31.23 232.33-31.2 231.78-31.15L231.78-31.15 231.78-35 246.13-35 246.13-31.7Q245.03-31.65 244.23-31.4 243.43-31.15 243.01-30.28 242.58-29.4 242.58-27.35L242.58-27.35 242.58-19.55 256.33-19.55 256.33-26.8Q256.33-28.15 256.38-29.4 256.43-30.65 256.53-31.3L256.53-31.3Q255.73-31.25 254.53-31.23 253.33-31.2 252.78-31.15L252.78-31.15 252.78-35 267.13-35 267.13-31.7Q266.03-31.65 265.23-31.4 264.43-31.15 264.01-30.28 263.58-29.4 263.58-27.35L263.58-27.35 263.58-8.2Q263.58-6.85 263.53-5.6 263.48-4.35 263.38-3.7L263.38-3.7Q264.18-3.8 265.41-3.83 266.63-3.85 267.13-3.85L267.13-3.85 267.13 0 252.78 0 252.78-3.3Q253.93-3.35 254.71-3.6 255.48-3.85 255.91-4.75 256.33-5.65 256.33-7.65L256.33-7.65 256.33-15.75 242.58-15.6 242.58-8.2Q242.58-6.85 242.53-5.6 242.48-4.35 242.38-3.7L242.38-3.7Q243.18-3.8 244.41-3.83 245.63-3.85 246.13-3.85L246.13-3.85 246.13 0ZM308.78-23.8L305.48-23.8Q305.03-26.6 303.88-28.48 302.73-30.35 300.95-31.3 299.18-32.25 296.83-32.2L296.83-32.2Q294.68-32.2 293.05-31 291.43-29.8 291.43-27.9L291.43-27.9Q291.43-26.35 292.3-25.2 293.18-24.05 294.98-23.05 296.78-22.05 299.53-20.9L299.53-20.9Q301.43-20.15 303.43-19.15 305.43-18.15 307.13-16.78 308.83-15.4 309.88-13.58 310.93-11.75 310.93-9.3L310.93-9.3Q310.93-6.35 309.33-4.05 307.73-1.75 304.85-0.48 301.98 0.8 298.13 0.8L298.13 0.8Q296.13 0.8 293.8 0.18 291.48-0.45 289.43-1.65L289.43-1.65 289.58 0.45 285.73 0.45 285.73-11.25 289.03-11.25Q289.73-7.05 292.25-4.93 294.78-2.8 298.28-2.8L298.28-2.8Q300.08-2.8 301.43-3.45 302.78-4.1 303.53-5.18 304.28-6.25 304.28-7.5L304.28-7.5Q304.28-9.25 303.05-10.4 301.83-11.55 300-12.35 298.18-13.15 296.28-13.9L296.28-13.9Q293.88-14.9 291.8-16.03 289.73-17.15 288.18-18.6 286.63-20.05 285.78-21.93 284.93-23.8 284.93-26.25L284.93-26.25Q284.93-27.8 285.53-29.48 286.13-31.15 287.48-32.58 288.83-34 291.08-34.9 293.33-35.8 296.63-35.8L296.63-35.8Q298.63-35.8 301-35.2 303.38-34.6 305.08-33.4L305.08-33.4 304.88-35.45 308.78-35.45 308.78-23.8ZM331.82 0.8L331.82 0.8Q327.07 0.8 323.75-0.8 320.42-2.4 318.37-5.08 316.32-7.75 315.37-11 314.42-14.25 314.42-17.5L314.42-17.5Q314.42-20.65 315.5-23.88 316.57-27.1 318.75-29.8 320.92-32.5 324.22-34.15 327.52-35.8 331.97-35.8L331.97-35.8Q336.52-35.8 339.82-34.15 343.12-32.5 345.22-29.78 347.32-27.05 348.35-23.85 349.37-20.65 349.37-17.5L349.37-17.5Q349.37-14.4 348.3-11.2 347.22-8 345.05-5.28 342.87-2.55 339.57-0.88 336.27 0.8 331.82 0.8ZM332.37-2.85L332.37-2.85Q334.97-2.85 336.72-4.13 338.47-5.4 339.52-7.45 340.57-9.5 341.02-11.93 341.47-14.35 341.47-16.65L341.47-16.65Q341.47-20.1 340.87-22.95 340.27-25.8 339.02-27.88 337.77-29.95 335.85-31.08 333.92-32.2 331.32-32.15L331.32-32.15Q328.77-32.1 327.02-30.78 325.27-29.45 324.22-27.38 323.17-25.3 322.72-22.85 322.27-20.4 322.27-18.1L322.27-18.1Q322.27-15.75 322.8-13.1 323.32-10.45 324.47-8.1 325.62-5.75 327.57-4.3 329.52-2.85 332.37-2.85ZM368.07 0L353.02 0 353.02-3.3Q354.17-3.35 354.95-3.6 355.72-3.85 356.15-4.75 356.57-5.65 356.57-7.65L356.57-7.65 356.57-26.8Q356.57-28.15 356.65-29.4 356.72-30.65 356.77-31.3L356.77-31.3Q355.97-31.25 354.77-31.23 353.57-31.2 353.02-31.15L353.02-31.15 353.02-35 378.02-35 378.32-25.3 375.02-25.3Q375.02-28.05 374.07-29.45 373.12-30.85 371.72-31.33 370.32-31.8 368.97-31.75L368.97-31.75 367.17-31.7Q366.12-31.7 365.37-31.43 364.62-31.15 364.22-30.23 363.82-29.3 363.82-27.35L363.82-27.35 363.82-18.65 368.97-18.65 368.77-22.95 372.62-22.95 372.62-10.8 369.32-10.8Q369.32-12.9 368.67-13.85 368.02-14.8 366.9-15.03 365.77-15.25 364.42-15.2L364.42-15.2 363.82-15.2 363.82-8.2Q363.82-6.85 363.77-5.6 363.72-4.35 363.62-3.7L363.62-3.7Q364.17-3.75 365.07-3.78 365.97-3.8 366.85-3.83 367.72-3.85 368.07-3.85L368.07-3.85 368.07 0ZM410.72-23.7L407.42-23.7Q407.42-26.4 406.67-28.18 405.92-29.95 404.54-30.83 403.17-31.7 401.27-31.65L401.27-31.65 398.87-31.65 398.87-8.2Q398.87-6.85 398.82-5.6 398.77-4.35 398.67-3.7L398.67-3.7Q399.52-3.8 400.84-3.83 402.17-3.85 402.67-3.85L402.67-3.85 402.67 0 388.07 0 388.07-3.3Q389.22-3.35 389.99-3.6 390.77-3.85 391.19-4.75 391.62-5.65 391.62-7.65L391.62-7.65 391.62-31.6 389.32-31.6Q386.47-31.55 384.82-29.65 383.17-27.75 383.17-23.7L383.17-23.7 379.87-23.7 380.12-35 410.42-35 410.72-23.7ZM429.57 0.3L425.22 0.3 416.32-26.65Q415.82-28.1 415.54-29.3 415.27-30.5 415.27-31.3L415.27-31.3Q414.32-31.25 413.59-31.23 412.87-31.2 412.22-31.15L412.22-31.15 412.22-35 426.97-35 426.97-31.7Q425.12-31.75 424.24-31 423.37-30.25 424.02-27.95L424.02-27.95Q424.77-25.1 425.52-22.25 426.27-19.4 427.02-16.55L427.02-16.55Q427.47-14.85 427.84-13.35 428.22-11.85 428.67-9.45L428.67-9.45 428.72-9.45Q428.92-10.15 429.32-11.6 429.72-13.05 430.19-14.73 430.67-16.4 431.04-17.78 431.42-19.15 431.57-19.7L431.57-19.7Q432.37-22.25 433.14-24.8 433.92-27.35 434.69-29.9 435.47-32.45 436.22-35L436.22-35 440.72-35Q441.42-32.7 442.14-30.4 442.87-28.1 443.57-25.8 444.27-23.5 444.99-21.2 445.72-18.9 446.42-16.6L446.42-16.6Q446.97-14.9 447.39-13.08 447.82-11.25 448.22-9.4L448.22-9.4 448.27-9.4Q448.72-11 449.19-12.73 449.67-14.45 450.17-16.3L450.17-16.3Q450.52-17.6 450.87-18.9 451.22-20.2 451.57-21.53 451.92-22.85 452.27-24.15 452.62-25.45 452.97-26.75L452.97-26.75Q453.27-27.95 453.77-29.23 454.27-30.5 455.02-31.3L455.02-31.3Q454.22-31.25 452.97-31.23 451.72-31.2 451.17-31.15L451.17-31.15 451.17-35 462.42-35 462.42-31.7Q461.32-31.65 460.34-31.13 459.37-30.6 458.57-29.45 457.77-28.3 457.12-26.35L457.12-26.35Q455.12-19.7 453.07-13.05 451.02-6.4 448.97 0.3L448.97 0.3 444.52 0.3 438.62-17.6Q437.97-19.55 437.54-21.43 437.12-23.3 436.72-25L436.72-25Q436.47-23.3 436.12-21.73 435.77-20.15 435.27-18.45L435.27-18.45 429.57 0.3ZM469.76 0L459.06 0 459.06-3.45Q460.46-3.45 461.31-4.25 462.16-5.05 462.74-6.35 463.31-7.65 463.86-9.15L463.86-9.15 473.61-35.9 477.11-35.9 487.76-8.65Q488.06-7.9 488.56-6.38 489.06-4.85 489.16-3.7L489.16-3.7Q490.01-3.8 490.79-3.83 491.56-3.85 492.06-3.85L492.06-3.85 492.06 0 478.61 0 478.61-3.3Q480.01-3.3 480.54-3.88 481.06-4.45 481.01-5.45 480.96-6.45 480.46-7.7L480.46-7.7 479.46-10.45 468.61-10.25 467.81-7.9Q467.56-7.25 467.09-5.98 466.61-4.7 466.21-3.85L466.21-3.85Q467.01-3.95 468.14-3.98 469.26-4 469.76-4L469.76-4 469.76 0ZM472.11-20.5L469.86-14 478.21-14 475.91-20.25Q475.26-22.05 474.76-23.88 474.26-25.7 474.01-27.1L474.01-27.1 473.96-27.1Q473.76-26.25 473.36-24.55 472.96-22.85 472.11-20.5L472.11-20.5ZM509.61 0L494.76 0 494.76-3.3Q495.91-3.35 496.69-3.6 497.46-3.85 497.89-4.75 498.31-5.65 498.31-7.65L498.31-7.65 498.31-26.8Q498.31-28.15 498.39-29.4 498.46-30.65 498.51-31.3L498.51-31.3Q497.71-31.25 496.51-31.23 495.31-31.2 494.76-31.15L494.76-31.15 494.76-35Q498.31-35.05 501.86-35.05 505.41-35.05 508.96-35.1L508.96-35.1Q513.36-35.15 516.61-34.1 519.86-33.05 521.61-30.7 523.36-28.35 523.26-24.35L523.26-24.35Q523.21-22.25 522.24-20.35 521.26-18.45 519.34-17 517.41-15.55 514.46-14.7L514.46-14.7Q515.41-14.3 516.34-13.4 517.26-12.5 517.91-11.5L517.91-11.5 520.26-8Q521.36-6.3 522.21-5.3 523.06-4.3 523.91-3.83 524.76-3.35 525.86-3.3L525.86-3.3 525.86 0 517.61 0Q516.71-0.65 515.84-1.88 514.96-3.1 513.96-4.7L513.96-4.7 510.26-10.7Q509.61-11.7 509.14-12.4 508.66-13.1 508.16-13.6L508.16-13.6Q507.36-13.6 506.81-13.6 506.26-13.6 505.56-13.6L505.56-13.6 505.56-8.25Q505.56-6.85 505.51-5.6 505.46-4.35 505.36-3.7L505.36-3.7Q505.91-3.75 506.76-3.78 507.61-3.8 508.44-3.83 509.26-3.85 509.61-3.85L509.61-3.85 509.61 0ZM507.96-17.2L507.96-17.2Q510.76-17.2 512.46-18.03 514.16-18.85 514.94-20.53 515.71-22.2 515.71-24.75L515.71-24.75Q515.71-27.15 514.96-28.53 514.21-29.9 513.09-30.58 511.96-31.25 510.81-31.43 509.66-31.6 508.91-31.6L508.91-31.6Q507.86-31.6 507.11-31.35 506.36-31.1 505.96-30.25 505.56-29.4 505.56-27.65L505.56-27.65 505.56-17.4Q506.11-17.35 506.71-17.28 507.31-17.2 507.96-17.2ZM549.36-12.05L546.06-12.05Q546.06-14.15 545.41-15.08 544.76-16 543.63-16.25 542.51-16.5 541.16-16.45L541.16-16.45 539.86-16.4 539.86-8.2Q539.86-6.85 539.81-5.65 539.76-4.45 539.66-3.8L539.66-3.8 546.36-3.8Q547.86-3.8 549.26-4.48 550.66-5.15 551.56-6.73 552.46-8.3 552.46-11L552.46-11 555.71-11 555.46 0 529.06 0 529.06-3.3Q530.21-3.35 530.98-3.6 531.76-3.85 532.18-4.75 532.61-5.65 532.61-7.65L532.61-7.65 532.61-26.8Q532.61-28.15 532.68-29.4 532.76-30.65 532.81-31.3L532.81-31.3Q532.01-31.25 530.81-31.23 529.61-31.2 529.06-31.15L529.06-31.15 529.06-35 554.06-35 554.36-25.3 551.06-25.3Q551.06-28.05 550.11-29.45 549.16-30.85 547.76-31.33 546.36-31.8 545.01-31.75L545.01-31.75 543.21-31.7Q542.16-31.7 541.41-31.43 540.66-31.15 540.26-30.23 539.86-29.3 539.86-27.35L539.86-27.35 539.86-19.85 545.71-19.85 545.51-24.2 549.36-24.2 549.36-12.05ZM593.7-12.05L590.4-12.05Q590.4-14.15 589.75-15.08 589.1-16 587.98-16.25 586.85-16.5 585.5-16.45L585.5-16.45 584.2-16.4 584.2-8.2Q584.2-6.85 584.15-5.65 584.1-4.45 584-3.8L584-3.8 590.7-3.8Q592.2-3.8 593.6-4.48 595-5.15 595.9-6.73 596.8-8.3 596.8-11L596.8-11 600.05-11 599.8 0 573.4 0 573.4-3.3Q574.55-3.35 575.33-3.6 576.1-3.85 576.53-4.75 576.95-5.65 576.95-7.65L576.95-7.65 576.95-26.8Q576.95-28.15 577.03-29.4 577.1-30.65 577.15-31.3L577.15-31.3Q576.35-31.25 575.15-31.23 573.95-31.2 573.4-31.15L573.4-31.15 573.4-35 598.4-35 598.7-25.3 595.4-25.3Q595.4-28.05 594.45-29.45 593.5-30.85 592.1-31.33 590.7-31.8 589.35-31.75L589.35-31.75 587.55-31.7Q586.5-31.7 585.75-31.43 585-31.15 584.6-30.23 584.2-29.3 584.2-27.35L584.2-27.35 584.2-19.85 590.05-19.85 589.85-24.2 593.7-24.2 593.7-12.05ZM635.45 0.5L631.2 0.5 615.2-19.95Q614.55-20.8 613.85-21.75 613.15-22.7 612.45-23.7L612.45-23.7 612.4-23.7 612.5-8.2Q612.5-6.85 612.45-5.6 612.4-4.35 612.3-3.7L612.3-3.7Q613.1-3.8 614.33-3.83 615.55-3.85 616.05-3.85L616.05-3.85 616.05 0 604.65 0 604.65-3.3Q605.8-3.35 606.58-3.6 607.35-3.85 607.78-4.75 608.2-5.65 608.2-7.65L608.2-7.65 608.1-26.8Q608.1-28.15 608.15-29.4 608.2-30.65 608.3-31.3L608.3-31.3Q607.5-31.25 606.28-31.23 605.05-31.2 604.5-31.15L604.5-31.15 604.5-35 612.35-35 627.65-15.7Q628.9-14.1 629.73-12.95 630.55-11.8 631.15-10.95L631.15-10.95 631.2-10.95 631.2-26.8Q631.2-28.15 631.25-29.4 631.3-30.65 631.35-31.3L631.35-31.3Q630.55-31.25 629.35-31.23 628.15-31.2 627.6-31.15L627.6-31.15 627.6-35 639-35 639-31.7Q637.9-31.65 637.1-31.4 636.3-31.15 635.88-30.28 635.45-29.4 635.45-27.35L635.45-27.35 635.45 0.5ZM659.05 0.8L659.05 0.8Q653.65 0.8 649.85-1.58 646.05-3.95 644.05-8 642.05-12.05 642.05-17L642.05-17Q642.05-20.4 643.12-23.75 644.2-27.1 646.35-29.83 648.5-32.55 651.77-34.18 655.05-35.8 659.4-35.8L659.4-35.8Q660.75-35.8 662.45-35.52 664.15-35.25 665.87-34.7 667.6-34.15 668.95-33.35L668.95-33.35 668.75-35.45 672.6-35.45 672.6-23.8 669.35-23.8Q668.9-26.6 667.6-28.45 666.3-30.3 664.35-31.25 662.4-32.2 660.05-32.2L660.05-32.2Q657.45-32.2 655.52-31 653.6-29.8 652.35-27.8 651.1-25.8 650.47-23.25 649.85-20.7 649.85-18L649.85-18Q649.85-13.7 651.05-10.35 652.25-7 654.57-5.08 656.9-3.15 660.3-3.15L660.3-3.15Q661.25-3.15 662.55-3.3 663.85-3.45 665.15-3.75 666.45-4.05 667.35-4.5L667.35-4.5 667.35-9.15Q667.35-10.5 667.42-11.75 667.5-13 667.55-13.65L667.55-13.65Q666.75-13.6 665.55-13.58 664.35-13.55 663.8-13.5L663.8-13.5 663.8-17.35 677.1-17.35 677.1-14.05Q676.25-14 675.62-13.85 675-13.7 674.57-13.28 674.15-12.85 673.95-12 673.75-11.15 673.75-9.7L673.75-9.7 673.75-1.7 672.55-1.7Q671.1-1.7 669.65-1.3 668.2-0.9 666.55-0.4L666.55-0.4Q665 0.05 663.15 0.43 661.3 0.8 659.05 0.8ZM694.8-35L694.8-31.7Q693.7-31.65 692.9-31.4 692.1-31.15 691.67-30.28 691.25-29.4 691.25-27.35L691.25-27.35 691.25-8.2Q691.25-6.85 691.2-5.6 691.15-4.35 691.05-3.7L691.05-3.7Q691.85-3.8 693.07-3.83 694.3-3.85 694.8-3.85L694.8-3.85 694.8 0 680.45 0 680.45-3.3Q681.6-3.35 682.37-3.6 683.15-3.85 683.57-4.75 684-5.65 684-7.65L684-7.65 684-26.8Q684-28.15 684.07-29.4 684.15-30.65 684.2-31.3L684.2-31.3Q683.4-31.25 682.2-31.23 681-31.2 680.45-31.15L680.45-31.15 680.45-35 694.8-35ZM730.64 0.5L726.39 0.5 710.39-19.95Q709.74-20.8 709.04-21.75 708.34-22.7 707.64-23.7L707.64-23.7 707.59-23.7 707.69-8.2Q707.69-6.85 707.64-5.6 707.59-4.35 707.49-3.7L707.49-3.7Q708.29-3.8 709.52-3.83 710.74-3.85 711.24-3.85L711.24-3.85 711.24 0 699.84 0 699.84-3.3Q700.99-3.35 701.77-3.6 702.54-3.85 702.97-4.75 703.39-5.65 703.39-7.65L703.39-7.65 703.29-26.8Q703.29-28.15 703.34-29.4 703.39-30.65 703.49-31.3L703.49-31.3Q702.69-31.25 701.47-31.23 700.24-31.2 699.69-31.15L699.69-31.15 699.69-35 707.54-35 722.84-15.7Q724.09-14.1 724.92-12.95 725.74-11.8 726.34-10.95L726.34-10.95 726.39-10.95 726.39-26.8Q726.39-28.15 726.44-29.4 726.49-30.65 726.54-31.3L726.54-31.3Q725.74-31.25 724.54-31.23 723.34-31.2 722.79-31.15L722.79-31.15 722.79-35 734.19-35 734.19-31.7Q733.09-31.65 732.29-31.4 731.49-31.15 731.07-30.28 730.64-29.4 730.64-27.35L730.64-27.35 730.64 0.5ZM758.74-12.05L755.44-12.05Q755.44-14.15 754.79-15.08 754.14-16 753.02-16.25 751.89-16.5 750.54-16.45L750.54-16.45 749.24-16.4 749.24-8.2Q749.24-6.85 749.19-5.65 749.14-4.45 749.04-3.8L749.04-3.8 755.74-3.8Q757.24-3.8 758.64-4.48 760.04-5.15 760.94-6.73 761.84-8.3 761.84-11L761.84-11 765.09-11 764.84 0 738.44 0 738.44-3.3Q739.59-3.35 740.37-3.6 741.14-3.85 741.57-4.75 741.99-5.65 741.99-7.65L741.99-7.65 741.99-26.8Q741.99-28.15 742.07-29.4 742.14-30.65 742.19-31.3L742.19-31.3Q741.39-31.25 740.19-31.23 738.99-31.2 738.44-31.15L738.44-31.15 738.44-35 763.44-35 763.74-25.3 760.44-25.3Q760.44-28.05 759.49-29.45 758.54-30.85 757.14-31.33 755.74-31.8 754.39-31.75L754.39-31.75 752.59-31.7Q751.54-31.7 750.79-31.43 750.04-31.15 749.64-30.23 749.24-29.3 749.24-27.35L749.24-27.35 749.24-19.85 755.09-19.85 754.89-24.2 758.74-24.2 758.74-12.05ZM789.94-12.05L786.64-12.05Q786.64-14.15 785.99-15.08 785.34-16 784.21-16.25 783.09-16.5 781.74-16.45L781.74-16.45 780.44-16.4 780.44-8.2Q780.44-6.85 780.39-5.65 780.34-4.45 780.24-3.8L780.24-3.8 786.94-3.8Q788.44-3.8 789.84-4.48 791.24-5.15 792.14-6.73 793.04-8.3 793.04-11L793.04-11 796.29-11 796.04 0 769.64 0 769.64-3.3Q770.79-3.35 771.56-3.6 772.34-3.85 772.76-4.75 773.19-5.65 773.19-7.65L773.19-7.65 773.19-26.8Q773.19-28.15 773.26-29.4 773.34-30.65 773.39-31.3L773.39-31.3Q772.59-31.25 771.39-31.23 770.19-31.2 769.64-31.15L769.64-31.15 769.64-35 794.64-35 794.94-25.3 791.64-25.3Q791.64-28.05 790.69-29.45 789.74-30.85 788.34-31.33 786.94-31.8 785.59-31.75L785.59-31.75 783.79-31.7Q782.74-31.7 781.99-31.43 781.24-31.15 780.84-30.23 780.44-29.3 780.44-27.35L780.44-27.35 780.44-19.85 786.29-19.85 786.09-24.2 789.94-24.2 789.94-12.05ZM815.69 0L800.84 0 800.84-3.3Q801.99-3.35 802.76-3.6 803.54-3.85 803.96-4.75 804.39-5.65 804.39-7.65L804.39-7.65 804.39-26.8Q804.39-28.15 804.46-29.4 804.54-30.65 804.59-31.3L804.59-31.3Q803.79-31.25 802.59-31.23 801.39-31.2 800.84-31.15L800.84-31.15 800.84-35Q804.39-35.05 807.94-35.05 811.49-35.05 815.04-35.1L815.04-35.1Q819.44-35.15 822.69-34.1 825.94-33.05 827.69-30.7 829.44-28.35 829.34-24.35L829.34-24.35Q829.29-22.25 828.31-20.35 827.34-18.45 825.41-17 823.49-15.55 820.54-14.7L820.54-14.7Q821.49-14.3 822.41-13.4 823.34-12.5 823.99-11.5L823.99-11.5 826.34-8Q827.44-6.3 828.29-5.3 829.14-4.3 829.99-3.83 830.84-3.35 831.94-3.3L831.94-3.3 831.94 0 823.69 0Q822.79-0.65 821.91-1.88 821.04-3.1 820.04-4.7L820.04-4.7 816.34-10.7Q815.69-11.7 815.21-12.4 814.74-13.1 814.24-13.6L814.24-13.6Q813.44-13.6 812.89-13.6 812.34-13.6 811.64-13.6L811.64-13.6 811.64-8.25Q811.64-6.85 811.59-5.6 811.54-4.35 811.44-3.7L811.44-3.7Q811.99-3.75 812.84-3.78 813.69-3.8 814.51-3.83 815.34-3.85 815.69-3.85L815.69-3.85 815.69 0ZM814.04-17.2L814.04-17.2Q816.84-17.2 818.54-18.03 820.24-18.85 821.01-20.53 821.79-22.2 821.79-24.75L821.79-24.75Q821.79-27.15 821.04-28.53 820.29-29.9 819.16-30.58 818.04-31.25 816.89-31.43 815.74-31.6 814.99-31.6L814.99-31.6Q813.94-31.6 813.19-31.35 812.44-31.1 812.04-30.25 811.64-29.4 811.64-27.65L811.64-27.65 811.64-17.4Q812.19-17.35 812.79-17.28 813.39-17.2 814.04-17.2Z" opacity="1" transform="matrix(1,0,0,1,0,0)" fill="black" class="wordmark-text-0" id="SvgjsPath1023" stroke-width="13" stroke="black" stroke-linejoin="round"></path></svg></g></svg></g><g transform="matrix(1,0,0,1,86.85522601114253,26.501926691820774)"><svg viewBox="0 0 127.63811940628634 10.961672719260331" height="10.961672719260331" width="127.63811940628634"><g transform="matrix(1,0,0,1,0,0)"><svg width="127.63811940628634" viewBox="-3.95 -47.95 635.5300000000001 55.5" height="10.961672719260331" data-palette-color="#ffffff"><path d="M14.7 0L3.05 0 3.05-40.5 13-40.5Q15.7-40.5 17.88-40 20.05-39.5 21.63-38.33 23.2-37.15 24.05-35.15 24.9-33.15 24.9-30.1L24.9-30.1Q24.9-27.65 24.23-25.9 23.55-24.15 22.25-23.13 20.95-22.1 19-21.75L19-21.75Q21.4-21.35 22.98-20.08 24.55-18.8 25.33-16.75 26.1-14.7 26.1-11.8L26.1-11.8Q26.1-8.9 25.38-6.68 24.65-4.45 23.23-2.98 21.8-1.5 19.68-0.75 17.55 0 14.7 0L14.7 0ZM10.45-18.85L10.45-5.2 13.25-5.2Q16.6-5.2 17.8-6.83 19-8.45 19-11.85L19-11.85Q19-14.3 18.43-15.83 17.85-17.35 16.53-18.1 15.2-18.85 13-18.85L13-18.85 10.45-18.85ZM10.45-35.35L10.45-23.95 12.95-23.95Q15.15-23.95 16.35-24.6 17.55-25.25 18.03-26.6 18.5-27.95 18.5-30L18.5-30Q18.5-32.15 17.78-33.33 17.05-34.5 15.6-34.93 14.15-35.35 11.9-35.35L11.9-35.35 10.45-35.35ZM38.3 0L30.9 0 30.9-40.5 40.6-40.5Q44.7-40.5 47.52-39.53 50.35-38.55 51.82-36.2 53.3-33.85 53.3-29.8L53.3-29.8Q53.3-27.35 52.85-25.4 52.4-23.45 51.32-22.08 50.25-20.7 48.35-19.95L48.35-19.95 54 0 46.6 0 41.7-18.55 38.3-18.55 38.3 0ZM38.3-35.45L38.3-23.2 40.6-23.2Q42.75-23.2 44.02-23.83 45.3-24.45 45.85-25.83 46.4-27.2 46.4-29.35L46.4-29.35Q46.4-32.4 45.27-33.93 44.15-35.45 41-35.45L41-35.45 38.3-35.45ZM66.34 0L59.05 0 59.05-40.5 66.34-40.5 66.34 0ZM78.89 0L72.59 0 72.59-40.5 77.74-40.5 87.59-17.4 87.59-40.5 93.69-40.5 93.69 0 88.79 0 78.89-24.2 78.89 0ZM109.99 0.55L109.99 0.55Q105.99 0.55 103.64-1.15 101.29-2.85 100.27-5.98 99.24-9.1 99.24-13.35L99.24-13.35 99.24-26.95Q99.24-31.3 100.24-34.45 101.24-37.6 103.77-39.28 106.29-40.95 110.74-40.95L110.74-40.95Q114.89-40.95 117.34-39.55 119.79-38.15 120.87-35.52 121.94-32.9 121.94-29.15L121.94-29.15 121.94-27.05 114.89-27.05 114.89-29.35Q114.89-31.3 114.62-32.7 114.34-34.1 113.52-34.83 112.69-35.55 110.84-35.55L110.84-35.55Q108.89-35.55 108.02-34.6 107.14-33.65 106.92-32.1 106.69-30.55 106.69-28.7L106.69-28.7 106.69-11.75Q106.69-9.65 107.04-8.1 107.39-6.55 108.34-5.73 109.29-4.9 111.04-4.9L111.04-4.9Q112.84-4.9 113.79-5.8 114.74-6.7 115.12-8.3 115.49-9.9 115.49-12.1L115.49-12.1 115.49-15.9 111.14-15.9 111.14-20.55 122.14-20.55 122.14 0 117.39 0 116.84-4Q116.04-2 114.42-0.73 112.79 0.55 109.99 0.55ZM152.64 0L145.59 0 145.59-15.45 137.39-40.5 144.29-40.5 149.29-24.45 153.99-40.5 160.74-40.5 152.64-15.45 152.64 0ZM174.88 0.55L174.88 0.55Q170.58 0.55 168.03-1.05 165.48-2.65 164.38-5.65 163.28-8.65 163.28-12.75L163.28-12.75 163.28-27.9Q163.28-32 164.38-34.93 165.48-37.85 168.03-39.4 170.58-40.95 174.88-40.95L174.88-40.95Q179.28-40.95 181.81-39.4 184.33-37.85 185.46-34.93 186.58-32 186.58-27.9L186.58-27.9 186.58-12.7Q186.58-8.65 185.46-5.68 184.33-2.7 181.81-1.07 179.28 0.55 174.88 0.55ZM174.88-4.9L174.88-4.9Q176.73-4.9 177.61-5.7 178.48-6.5 178.78-7.9 179.08-9.3 179.08-10.95L179.08-10.95 179.08-29.6Q179.08-31.3 178.78-32.65 178.48-34 177.61-34.77 176.73-35.55 174.88-35.55L174.88-35.55Q173.13-35.55 172.23-34.77 171.33-34 171.03-32.65 170.73-31.3 170.73-29.6L170.73-29.6 170.73-10.95Q170.73-9.3 171.01-7.9 171.28-6.5 172.18-5.7 173.08-4.9 174.88-4.9ZM203.13 0.55L203.13 0.55Q198.63 0.55 196.13-1.1 193.63-2.75 192.68-5.8 191.73-8.85 191.73-13.1L191.73-13.1 191.73-40.5 198.93-40.5 198.93-12.25Q198.93-10.35 199.18-8.68 199.43-7 200.36-5.98 201.28-4.95 203.13-4.95L203.13-4.95Q205.08-4.95 205.96-5.98 206.83-7 207.11-8.68 207.38-10.35 207.38-12.25L207.38-12.25 207.38-40.5 214.53-40.5 214.53-13.1Q214.53-8.85 213.58-5.8 212.63-2.75 210.16-1.1 207.68 0.55 203.13 0.55ZM227.73 0L220.33 0 220.33-40.5 230.03-40.5Q234.13-40.5 236.95-39.53 239.78-38.55 241.25-36.2 242.73-33.85 242.73-29.8L242.73-29.8Q242.73-27.35 242.28-25.4 241.83-23.45 240.75-22.08 239.68-20.7 237.78-19.95L237.78-19.95 243.43 0 236.03 0 231.13-18.55 227.73-18.55 227.73 0ZM227.73-35.45L227.73-23.2 230.03-23.2Q232.18-23.2 233.45-23.83 234.73-24.45 235.28-25.83 235.83-27.2 235.83-29.35L235.83-29.35Q235.83-32.4 234.7-33.93 233.58-35.45 230.43-35.45L230.43-35.45 227.73-35.45ZM265.87 0L260.32 0 261.02-40.5 268.67-40.5 274.42-12.45 280.42-40.5 287.82-40.5 288.57 0 283.07 0 282.47-28.15 276.72 0 272.27 0 266.42-28.25 265.87 0ZM301.77 0L294.47 0 294.47-40.5 301.77-40.5 301.77 0ZM314.32 0L308.02 0 308.02-40.5 313.17-40.5 323.02-17.4 323.02-40.5 329.12-40.5 329.12 0 324.22 0 314.32-24.2 314.32 0ZM345.12 0L335.27 0 335.27-40.5 344.82-40.5Q349.77-40.5 352.54-39.15 355.32-37.8 356.49-35 357.67-32.2 357.67-27.9L357.67-27.9 357.67-13.1Q357.67-8.7 356.49-5.78 355.32-2.85 352.59-1.43 349.87 0 345.12 0L345.12 0ZM342.67-35.25L342.67-5.15 344.92-5.15Q347.47-5.15 348.57-6.05 349.67-6.95 349.92-8.68 350.17-10.4 350.17-12.9L350.17-12.9 350.17-28.4Q350.17-30.85 349.82-32.35 349.47-33.85 348.37-34.55 347.27-35.25 344.82-35.25L344.82-35.25 342.67-35.25ZM386.71 0L379.31 0 379.31-35.05 372.86-35.05 372.86-40.5 393.06-40.5 393.06-35.05 386.71-35.05 386.71 0ZM407.56 0.55L407.56 0.55Q403.26 0.55 400.71-1.05 398.16-2.65 397.06-5.65 395.96-8.65 395.96-12.75L395.96-12.75 395.96-27.9Q395.96-32 397.06-34.93 398.16-37.85 400.71-39.4 403.26-40.95 407.56-40.95L407.56-40.95Q411.96-40.95 414.48-39.4 417.01-37.85 418.13-34.93 419.26-32 419.26-27.9L419.26-27.9 419.26-12.7Q419.26-8.65 418.13-5.68 417.01-2.7 414.48-1.07 411.96 0.55 407.56 0.55ZM407.56-4.9L407.56-4.9Q409.41-4.9 410.28-5.7 411.16-6.5 411.46-7.9 411.76-9.3 411.76-10.95L411.76-10.95 411.76-29.6Q411.76-31.3 411.46-32.65 411.16-34 410.28-34.77 409.41-35.55 407.56-35.55L407.56-35.55Q405.81-35.55 404.91-34.77 404.01-34 403.71-32.65 403.41-31.3 403.41-29.6L403.41-29.6 403.41-10.95Q403.41-9.3 403.68-7.9 403.96-6.5 404.86-5.7 405.76-4.9 407.56-4.9ZM444.25 0L436.85 0 436.85-40.5 448.75-40.5Q452.4-40.5 454.68-39.15 456.95-37.8 458.03-35.23 459.1-32.65 459.1-29L459.1-29Q459.1-25.05 457.75-22.63 456.4-20.2 453.98-19.1 451.55-18 448.25-18L448.25-18 444.25-18 444.25 0ZM444.25-35.3L444.25-23.2 447.05-23.2Q449.05-23.2 450.18-23.78 451.3-24.35 451.73-25.63 452.15-26.9 452.15-29.05L452.15-29.05Q452.15-31.25 451.83-32.63 451.5-34 450.43-34.65 449.35-35.3 447.05-35.3L447.05-35.3 444.25-35.3ZM470.45 0L463.1 0 463.1-40.5 470.45-40.5 470.45-23.55 478.7-23.55 478.7-40.5 486.1-40.5 486.1 0 478.7 0 478.7-18.3 470.45-18.3 470.45 0ZM505 0L497.95 0 497.95-15.45 489.75-40.5 496.65-40.5 501.65-24.45 506.35-40.5 513.1-40.5 505-15.45 505 0ZM526.64 0.55L526.64 0.55Q523 0.55 520.54-0.88 518.1-2.3 516.85-5.05 515.6-7.8 515.44-11.8L515.44-11.8 521.79-13.05Q521.89-10.7 522.37-8.9 522.85-7.1 523.82-6.13 524.79-5.15 526.39-5.15L526.39-5.15Q528.19-5.15 528.94-6.23 529.69-7.3 529.69-8.95L529.69-8.95Q529.69-11.6 528.5-13.3 527.29-15 525.29-16.7L525.29-16.7 520.19-21.2Q518.04-23.05 516.77-25.33 515.5-27.6 515.5-30.95L515.5-30.95Q515.5-35.75 518.29-38.35 521.1-40.95 525.94-40.95L525.94-40.95Q528.79-40.95 530.69-40.08 532.6-39.2 533.72-37.65 534.85-36.1 535.39-34.13 535.94-32.15 536.1-29.95L536.1-29.95 529.79-28.85Q529.69-30.75 529.37-32.25 529.04-33.75 528.22-34.6 527.39-35.45 525.79-35.45L525.79-35.45Q524.14-35.45 523.27-34.38 522.39-33.3 522.39-31.7L522.39-31.7Q522.39-29.65 523.25-28.33 524.1-27 525.69-25.6L525.69-25.6 530.75-21.15Q533.25-19.05 535.02-16.23 536.79-13.4 536.79-9.4L536.79-9.4Q536.79-6.5 535.52-4.25 534.25-2 531.97-0.73 529.69 0.55 526.64 0.55ZM548.24 0L540.94 0 540.94-40.5 548.24-40.5 548.24 0ZM565.39 0.55L565.39 0.55Q560.94 0.55 558.41-1.2 555.89-2.95 554.89-5.98 553.89-9 553.89-12.95L553.89-12.95 553.89-27.4Q553.89-31.55 554.89-34.6 555.89-37.65 558.41-39.3 560.94-40.95 565.39-40.95L565.39-40.95Q569.59-40.95 571.96-39.53 574.34-38.1 575.34-35.45 576.34-32.8 576.34-29.3L576.34-29.3 576.34-25.9 569.24-25.9 569.24-29.4Q569.24-31.1 569.06-32.5 568.89-33.9 568.11-34.73 567.34-35.55 565.44-35.55L565.44-35.55Q563.54-35.55 562.66-34.68 561.79-33.8 561.54-32.33 561.29-30.85 561.29-29L561.29-29 561.29-11.4Q561.29-9.2 561.64-7.78 561.99-6.35 562.91-5.63 563.84-4.9 565.44-4.9L565.44-4.9Q567.29-4.9 568.06-5.78 568.84-6.65 569.04-8.1 569.24-9.55 569.24-11.35L569.24-11.35 569.24-15 576.34-15 576.34-11.75Q576.34-8.15 575.39-5.38 574.44-2.6 572.06-1.03 569.69 0.55 565.39 0.55ZM586.39 0L579.44 0 587.54-40.5 595.44-40.5 603.54 0 596.69 0 595.09-9.35 588.04-9.35 586.39 0ZM591.54-31.05L588.79-14.05 594.29-14.05 591.54-31.05ZM624.58 0L607.38 0 607.38-40.5 614.78-40.5 614.78-5.1 624.58-5.1 624.58 0Z" opacity="1" transform="matrix(1,0,0,1,0,0)" fill="black" class="slogan-text-1" id="SvgjsPath1022" stroke-width="13" stroke="black" stroke-linejoin="round"></path></svg></g></svg></g></svg></g></svg></g><g></g></svg></g></svg></g></svg></g></mask><g transform="matrix(1,0,0,1,47.08571428571429,104.86820029445944)"><svg viewBox="0 0 301.3485714285714 37.463599411081105" height="37.463599411081105" width="301.3485714285714"><g><svg viewBox="0 0 301.3485714285714 37.463599411081105" height="37.463599411081105" width="301.3485714285714"><g><svg viewBox="0 0 301.3485714285714 37.463599411081105" height="37.463599411081105" width="301.3485714285714"><g><svg viewBox="0 0 301.3485714285714 37.463599411081105" height="37.463599411081105" width="301.3485714285714"><g id="textblocktransform"><svg viewBox="0 0 301.3485714285714 37.463599411081105" height="37.463599411081105" width="301.3485714285714" id="textblock"><g><svg viewBox="0 0 301.3485714285714 22.328075322672223" height="22.328075322672223" width="301.3485714285714"><g transform="matrix(1,0,0,1,0,0)"><svg width="301.3485714285714" viewBox="-4.85 -42.9 843.7900000000001 63.449999999999996" height="22.328075322672223" data-palette-color="#ffffff"><path d="M26-23.8L22.7-23.8Q22.25-26.6 21.1-28.48 19.95-30.35 18.18-31.3 16.4-32.25 14.05-32.2L14.05-32.2Q11.9-32.2 10.28-31 8.65-29.8 8.65-27.9L8.65-27.9Q8.65-26.35 9.53-25.2 10.4-24.05 12.2-23.05 14-22.05 16.75-20.9L16.75-20.9Q18.65-20.15 20.65-19.15 22.65-18.15 24.35-16.78 26.05-15.4 27.1-13.58 28.15-11.75 28.15-9.3L28.15-9.3Q28.15-6.35 26.55-4.05 24.95-1.75 22.08-0.48 19.2 0.8 15.35 0.8L15.35 0.8Q13.35 0.8 11.03 0.18 8.7-0.45 6.65-1.65L6.65-1.65 6.8 0.45 2.95 0.45 2.95-11.25 6.25-11.25Q6.95-7.05 9.47-4.93 12-2.8 15.5-2.8L15.5-2.8Q17.3-2.8 18.65-3.45 20-4.1 20.75-5.18 21.5-6.25 21.5-7.5L21.5-7.5Q21.5-9.25 20.28-10.4 19.05-11.55 17.23-12.35 15.4-13.15 13.5-13.9L13.5-13.9Q11.1-14.9 9.03-16.03 6.95-17.15 5.4-18.6 3.85-20.05 3-21.93 2.15-23.8 2.15-26.25L2.15-26.25Q2.15-27.8 2.75-29.48 3.35-31.15 4.7-32.58 6.05-34 8.3-34.9 10.55-35.8 13.85-35.8L13.85-35.8Q15.85-35.8 18.23-35.2 20.6-34.6 22.3-33.4L22.3-33.4 22.1-35.45 26-35.45 26-23.8ZM36.75 13.55L36.75 13.55Q34.85 13.55 33.52 12.43 32.2 11.3 32.2 9.45L32.2 9.45Q32.2 8.1 33.07 7.08 33.95 6.05 35.35 6L35.35 6Q36.45 5.95 37.22 6.73 38 7.5 38 8.85L38 8.85Q38 9 38 9.15 38 9.3 37.95 9.5L37.95 9.5Q38.05 9.5 38.2 9.45L38.2 9.45Q38.65 9.3 39.17 8.63 39.7 7.95 40.2 6.85L40.2 6.85Q40.75 5.7 41.27 4.28 41.8 2.85 42.2 1.3L42.2 1.3 34.3-14.55Q32.9-17.35 32.47-18.78 32.05-20.2 31.9-21.3L31.9-21.3 29.6-21.2 29.6-25 42.05-25 42.05-21.8 42.05-21.8Q40.2-21.6 40.02-20.4 39.85-19.2 40.45-17.9L40.45-17.9 45.35-6.7Q45.85-8 46.65-10.73 47.45-13.45 48.55-16.65L48.55-16.65Q48.75-17.3 49.07-18.18 49.4-19.05 49.8-19.93 50.2-20.8 50.65-21.35L50.65-21.35 47.8-21.2 47.8-25 56.7-25 56.7-21.8Q55.15-21.45 54.12-19.9 53.1-18.35 52.3-16.1L52.3-16.1 46.05 1.75Q44.65 5.8 43.4 8.43 42.15 11.05 40.6 12.3 39.05 13.55 36.75 13.55ZM70.34 0.8L70.34 0.8Q66.69 0.8 63.9-0.83 61.09-2.45 59.55-5.43 57.99-8.4 57.99-12.45L57.99-12.45Q57.99-15.95 59.55-19 61.09-22.05 63.92-23.93 66.75-25.8 70.5-25.8L70.5-25.8Q72.59-25.8 74.59-25.23 76.59-24.65 78.22-23.25 79.84-21.85 80.82-19.45 81.8-17.05 81.75-13.45L81.75-13.45 65.34-13.15Q65.34-10.45 66.02-8.3 66.69-6.15 68.25-4.9 69.8-3.65 72.39-3.65L72.39-3.65Q73.39-3.65 74.67-4 75.94-4.35 77.27-5.18 78.59-6 79.75-7.4L79.75-7.4 82-5.3Q80.19-2.75 78.15-1.43 76.09-0.1 74.07 0.35 72.05 0.8 70.34 0.8ZM65.64-16.65L65.64-16.65 74.84-16.65Q74.8-18.75 74.27-19.98 73.75-21.2 72.84-21.75 71.94-22.3 70.75-22.3L70.75-22.3Q68.55-22.3 67.3-20.73 66.05-19.15 65.64-16.65ZM107.64 0.5L102.99 0.5Q101.29-3.65 99.62-7.75 97.94-11.85 96.24-15.95L96.24-15.95Q95.84-16.9 95.22-18.63 94.59-20.35 93.92-22.6 93.24-24.85 92.69-27.25L92.69-27.25Q92.79-24.45 92.84-21.98 92.89-19.5 92.84-17.25L92.84-17.25Q92.84-16.15 92.84-15 92.84-13.85 92.82-12.73 92.79-11.6 92.79-10.48 92.79-9.35 92.79-8.2L92.79-8.2Q92.79-6.85 92.72-5.6 92.64-4.35 92.54-3.7L92.54-3.7Q93.39-3.8 94.62-3.83 95.84-3.85 96.34-3.85L96.34-3.85 96.34 0 84.94 0 84.94-3.3Q86.09-3.35 86.87-3.6 87.64-3.85 88.07-4.75 88.49-5.65 88.49-7.65L88.49-7.65 88.79-26.8Q88.84-28.15 88.89-29.4 88.94-30.65 88.99-31.3L88.99-31.3Q88.19-31.25 86.99-31.23 85.79-31.2 85.24-31.15L85.24-31.15 85.24-35 96.29-35 103.84-15.65Q104.29-14.5 104.84-12.98 105.39-11.45 105.89-10.03 106.39-8.6 106.64-7.75L106.64-7.75 106.69-7.75Q107.34-9.5 107.89-11.15 108.44-12.8 109.04-14.35L109.04-14.35Q110.99-19.55 112.92-24.7 114.84-29.85 116.79-35L116.79-35 128.34-35 128.34-31.7Q127.24-31.65 126.39-31.4 125.54-31.15 125.12-30.28 124.69-29.4 124.74-27.35L124.74-27.35 125.49-8.2Q125.59-6.85 125.49-5.6 125.39-4.35 125.29-3.7L125.29-3.7Q126.14-3.8 127.37-3.83 128.59-3.85 129.09-3.85L129.09-3.85 129.09 0 115.19 0 115.19-3.3Q116.34-3.35 117.17-3.6 117.99-3.85 118.42-4.75 118.84-5.65 118.74-7.65L118.74-7.65 118.34-18.25Q118.34-18.85 118.24-20.33 118.14-21.8 118.07-23.58 117.99-25.35 117.94-26.9L117.94-26.9Q117.79-26.55 117.64-26.23 117.49-25.9 117.39-25.55L117.39-25.55 107.64 0.5ZM162.84-23.7L159.54-23.7Q159.54-26.4 158.79-28.18 158.04-29.95 156.66-30.83 155.29-31.7 153.39-31.65L153.39-31.65 150.99-31.65 150.99-8.2Q150.99-6.85 150.94-5.6 150.89-4.35 150.79-3.7L150.79-3.7Q151.64-3.8 152.97-3.83 154.29-3.85 154.79-3.85L154.79-3.85 154.79 0 140.19 0 140.19-3.3Q141.34-3.35 142.12-3.6 142.89-3.85 143.31-4.75 143.74-5.65 143.74-7.65L143.74-7.65 143.74-31.6 141.44-31.6Q138.59-31.55 136.94-29.65 135.29-27.75 135.29-23.7L135.29-23.7 131.99-23.7 132.24-35 162.54-35 162.84-23.7ZM186.49-12.05L183.19-12.05Q183.19-14.15 182.54-15.08 181.89-16 180.76-16.25 179.64-16.5 178.29-16.45L178.29-16.45 176.99-16.4 176.99-8.2Q176.99-6.85 176.94-5.65 176.89-4.45 176.79-3.8L176.79-3.8 183.49-3.8Q184.99-3.8 186.39-4.48 187.79-5.15 188.69-6.73 189.59-8.3 189.59-11L189.59-11 192.84-11 192.59 0 166.19 0 166.19-3.3Q167.34-3.35 168.11-3.6 168.89-3.85 169.31-4.75 169.74-5.65 169.74-7.65L169.74-7.65 169.74-26.8Q169.74-28.15 169.81-29.4 169.89-30.65 169.94-31.3L169.94-31.3Q169.14-31.25 167.94-31.23 166.74-31.2 166.19-31.15L166.19-31.15 166.19-35 191.19-35 191.49-25.3 188.19-25.3Q188.19-28.05 187.24-29.45 186.29-30.85 184.89-31.33 183.49-31.8 182.14-31.75L182.14-31.75 180.34-31.7Q179.29-31.7 178.54-31.43 177.79-31.15 177.39-30.23 176.99-29.3 176.99-27.35L176.99-27.35 176.99-19.85 182.84-19.85 182.64-24.2 186.49-24.2 186.49-12.05ZM226.44-23.8L223.19-23.8Q222.53-27.95 220.41-30.05 218.28-32.15 214.78-32.2L214.78-32.2Q212.19-32.2 210.23-31 208.28-29.8 207.01-27.8 205.73-25.8 205.11-23.25 204.48-20.7 204.48-18L204.48-18Q204.48-13.7 205.71-10.38 206.94-7.05 209.28-5.15 211.63-3.25 214.98-3.25L214.98-3.25Q218.13-3.25 221.23-4.88 224.33-6.5 226.44-9.4L226.44-9.4 228.83-7.2Q226.38-3.85 223.69-2.13 220.98-0.4 218.41 0.2 215.83 0.8 213.78 0.8L213.78 0.8Q209.94 0.8 206.78-0.58 203.63-1.95 201.36-4.38 199.08-6.8 197.86-10.03 196.63-13.25 196.63-17L196.63-17Q196.63-20.4 197.73-23.75 198.83-27.1 201.01-29.83 203.19-32.55 206.48-34.18 209.78-35.8 214.13-35.8L214.13-35.8Q216.08-35.8 218.41-35.18 220.73-34.55 222.78-33.35L222.78-33.35 222.58-35.45 226.44-35.45 226.44-23.8ZM246.13 0L231.78 0 231.78-3.3Q232.93-3.35 233.71-3.6 234.48-3.85 234.91-4.75 235.33-5.65 235.33-7.65L235.33-7.65 235.33-26.8Q235.33-28.15 235.41-29.4 235.48-30.65 235.53-31.3L235.53-31.3Q234.73-31.25 233.53-31.23 232.33-31.2 231.78-31.15L231.78-31.15 231.78-35 246.13-35 246.13-31.7Q245.03-31.65 244.23-31.4 243.43-31.15 243.01-30.28 242.58-29.4 242.58-27.35L242.58-27.35 242.58-19.55 256.33-19.55 256.33-26.8Q256.33-28.15 256.38-29.4 256.43-30.65 256.53-31.3L256.53-31.3Q255.73-31.25 254.53-31.23 253.33-31.2 252.78-31.15L252.78-31.15 252.78-35 267.13-35 267.13-31.7Q266.03-31.65 265.23-31.4 264.43-31.15 264.01-30.28 263.58-29.4 263.58-27.35L263.58-27.35 263.58-8.2Q263.58-6.85 263.53-5.6 263.48-4.35 263.38-3.7L263.38-3.7Q264.18-3.8 265.41-3.83 266.63-3.85 267.13-3.85L267.13-3.85 267.13 0 252.78 0 252.78-3.3Q253.93-3.35 254.71-3.6 255.48-3.85 255.91-4.75 256.33-5.65 256.33-7.65L256.33-7.65 256.33-15.75 242.58-15.6 242.58-8.2Q242.58-6.85 242.53-5.6 242.48-4.35 242.38-3.7L242.38-3.7Q243.18-3.8 244.41-3.83 245.63-3.85 246.13-3.85L246.13-3.85 246.13 0ZM308.78-23.8L305.48-23.8Q305.03-26.6 303.88-28.48 302.73-30.35 300.95-31.3 299.18-32.25 296.83-32.2L296.83-32.2Q294.68-32.2 293.05-31 291.43-29.8 291.43-27.9L291.43-27.9Q291.43-26.35 292.3-25.2 293.18-24.05 294.98-23.05 296.78-22.05 299.53-20.9L299.53-20.9Q301.43-20.15 303.43-19.15 305.43-18.15 307.13-16.78 308.83-15.4 309.88-13.58 310.93-11.75 310.93-9.3L310.93-9.3Q310.93-6.35 309.33-4.05 307.73-1.75 304.85-0.48 301.98 0.8 298.13 0.8L298.13 0.8Q296.13 0.8 293.8 0.18 291.48-0.45 289.43-1.65L289.43-1.65 289.58 0.45 285.73 0.45 285.73-11.25 289.03-11.25Q289.73-7.05 292.25-4.93 294.78-2.8 298.28-2.8L298.28-2.8Q300.08-2.8 301.43-3.45 302.78-4.1 303.53-5.18 304.28-6.25 304.28-7.5L304.28-7.5Q304.28-9.25 303.05-10.4 301.83-11.55 300-12.35 298.18-13.15 296.28-13.9L296.28-13.9Q293.88-14.9 291.8-16.03 289.73-17.15 288.18-18.6 286.63-20.05 285.78-21.93 284.93-23.8 284.93-26.25L284.93-26.25Q284.93-27.8 285.53-29.48 286.13-31.15 287.48-32.58 288.83-34 291.08-34.9 293.33-35.8 296.63-35.8L296.63-35.8Q298.63-35.8 301-35.2 303.38-34.6 305.08-33.4L305.08-33.4 304.88-35.45 308.78-35.45 308.78-23.8ZM331.82 0.8L331.82 0.8Q327.07 0.8 323.75-0.8 320.42-2.4 318.37-5.08 316.32-7.75 315.37-11 314.42-14.25 314.42-17.5L314.42-17.5Q314.42-20.65 315.5-23.88 316.57-27.1 318.75-29.8 320.92-32.5 324.22-34.15 327.52-35.8 331.97-35.8L331.97-35.8Q336.52-35.8 339.82-34.15 343.12-32.5 345.22-29.78 347.32-27.05 348.35-23.85 349.37-20.65 349.37-17.5L349.37-17.5Q349.37-14.4 348.3-11.2 347.22-8 345.05-5.28 342.87-2.55 339.57-0.88 336.27 0.8 331.82 0.8ZM332.37-2.85L332.37-2.85Q334.97-2.85 336.72-4.13 338.47-5.4 339.52-7.45 340.57-9.5 341.02-11.93 341.47-14.35 341.47-16.65L341.47-16.65Q341.47-20.1 340.87-22.95 340.27-25.8 339.02-27.88 337.77-29.95 335.85-31.08 333.92-32.2 331.32-32.15L331.32-32.15Q328.77-32.1 327.02-30.78 325.27-29.45 324.22-27.38 323.17-25.3 322.72-22.85 322.27-20.4 322.27-18.1L322.27-18.1Q322.27-15.75 322.8-13.1 323.32-10.45 324.47-8.1 325.62-5.75 327.57-4.3 329.52-2.85 332.37-2.85ZM368.07 0L353.02 0 353.02-3.3Q354.17-3.35 354.95-3.6 355.72-3.85 356.15-4.75 356.57-5.65 356.57-7.65L356.57-7.65 356.57-26.8Q356.57-28.15 356.65-29.4 356.72-30.65 356.77-31.3L356.77-31.3Q355.97-31.25 354.77-31.23 353.57-31.2 353.02-31.15L353.02-31.15 353.02-35 378.02-35 378.32-25.3 375.02-25.3Q375.02-28.05 374.07-29.45 373.12-30.85 371.72-31.33 370.32-31.8 368.97-31.75L368.97-31.75 367.17-31.7Q366.12-31.7 365.37-31.43 364.62-31.15 364.22-30.23 363.82-29.3 363.82-27.35L363.82-27.35 363.82-18.65 368.97-18.65 368.77-22.95 372.62-22.95 372.62-10.8 369.32-10.8Q369.32-12.9 368.67-13.85 368.02-14.8 366.9-15.03 365.77-15.25 364.42-15.2L364.42-15.2 363.82-15.2 363.82-8.2Q363.82-6.85 363.77-5.6 363.72-4.35 363.62-3.7L363.62-3.7Q364.17-3.75 365.07-3.78 365.97-3.8 366.85-3.83 367.72-3.85 368.07-3.85L368.07-3.85 368.07 0ZM410.72-23.7L407.42-23.7Q407.42-26.4 406.67-28.18 405.92-29.95 404.54-30.83 403.17-31.7 401.27-31.65L401.27-31.65 398.87-31.65 398.87-8.2Q398.87-6.85 398.82-5.6 398.77-4.35 398.67-3.7L398.67-3.7Q399.52-3.8 400.84-3.83 402.17-3.85 402.67-3.85L402.67-3.85 402.67 0 388.07 0 388.07-3.3Q389.22-3.35 389.99-3.6 390.77-3.85 391.19-4.75 391.62-5.65 391.62-7.65L391.62-7.65 391.62-31.6 389.32-31.6Q386.47-31.55 384.82-29.65 383.17-27.75 383.17-23.7L383.17-23.7 379.87-23.7 380.12-35 410.42-35 410.72-23.7ZM429.57 0.3L425.22 0.3 416.32-26.65Q415.82-28.1 415.54-29.3 415.27-30.5 415.27-31.3L415.27-31.3Q414.32-31.25 413.59-31.23 412.87-31.2 412.22-31.15L412.22-31.15 412.22-35 426.97-35 426.97-31.7Q425.12-31.75 424.24-31 423.37-30.25 424.02-27.95L424.02-27.95Q424.77-25.1 425.52-22.25 426.27-19.4 427.02-16.55L427.02-16.55Q427.47-14.85 427.84-13.35 428.22-11.85 428.67-9.45L428.67-9.45 428.72-9.45Q428.92-10.15 429.32-11.6 429.72-13.05 430.19-14.73 430.67-16.4 431.04-17.78 431.42-19.15 431.57-19.7L431.57-19.7Q432.37-22.25 433.14-24.8 433.92-27.35 434.69-29.9 435.47-32.45 436.22-35L436.22-35 440.72-35Q441.42-32.7 442.14-30.4 442.87-28.1 443.57-25.8 444.27-23.5 444.99-21.2 445.72-18.9 446.42-16.6L446.42-16.6Q446.97-14.9 447.39-13.08 447.82-11.25 448.22-9.4L448.22-9.4 448.27-9.4Q448.72-11 449.19-12.73 449.67-14.45 450.17-16.3L450.17-16.3Q450.52-17.6 450.87-18.9 451.22-20.2 451.57-21.53 451.92-22.85 452.27-24.15 452.62-25.45 452.97-26.75L452.97-26.75Q453.27-27.95 453.77-29.23 454.27-30.5 455.02-31.3L455.02-31.3Q454.22-31.25 452.97-31.23 451.72-31.2 451.17-31.15L451.17-31.15 451.17-35 462.42-35 462.42-31.7Q461.32-31.65 460.34-31.13 459.37-30.6 458.57-29.45 457.77-28.3 457.12-26.35L457.12-26.35Q455.12-19.7 453.07-13.05 451.02-6.4 448.97 0.3L448.97 0.3 444.52 0.3 438.62-17.6Q437.97-19.55 437.54-21.43 437.12-23.3 436.72-25L436.72-25Q436.47-23.3 436.12-21.73 435.77-20.15 435.27-18.45L435.27-18.45 429.57 0.3ZM469.76 0L459.06 0 459.06-3.45Q460.46-3.45 461.31-4.25 462.16-5.05 462.74-6.35 463.31-7.65 463.86-9.15L463.86-9.15 473.61-35.9 477.11-35.9 487.76-8.65Q488.06-7.9 488.56-6.38 489.06-4.85 489.16-3.7L489.16-3.7Q490.01-3.8 490.79-3.83 491.56-3.85 492.06-3.85L492.06-3.85 492.06 0 478.61 0 478.61-3.3Q480.01-3.3 480.54-3.88 481.06-4.45 481.01-5.45 480.96-6.45 480.46-7.7L480.46-7.7 479.46-10.45 468.61-10.25 467.81-7.9Q467.56-7.25 467.09-5.98 466.61-4.7 466.21-3.85L466.21-3.85Q467.01-3.95 468.14-3.98 469.26-4 469.76-4L469.76-4 469.76 0ZM472.11-20.5L469.86-14 478.21-14 475.91-20.25Q475.26-22.05 474.76-23.88 474.26-25.7 474.01-27.1L474.01-27.1 473.96-27.1Q473.76-26.25 473.36-24.55 472.96-22.85 472.11-20.5L472.11-20.5ZM509.61 0L494.76 0 494.76-3.3Q495.91-3.35 496.69-3.6 497.46-3.85 497.89-4.75 498.31-5.65 498.31-7.65L498.31-7.65 498.31-26.8Q498.31-28.15 498.39-29.4 498.46-30.65 498.51-31.3L498.51-31.3Q497.71-31.25 496.51-31.23 495.31-31.2 494.76-31.15L494.76-31.15 494.76-35Q498.31-35.05 501.86-35.05 505.41-35.05 508.96-35.1L508.96-35.1Q513.36-35.15 516.61-34.1 519.86-33.05 521.61-30.7 523.36-28.35 523.26-24.35L523.26-24.35Q523.21-22.25 522.24-20.35 521.26-18.45 519.34-17 517.41-15.55 514.46-14.7L514.46-14.7Q515.41-14.3 516.34-13.4 517.26-12.5 517.91-11.5L517.91-11.5 520.26-8Q521.36-6.3 522.21-5.3 523.06-4.3 523.91-3.83 524.76-3.35 525.86-3.3L525.86-3.3 525.86 0 517.61 0Q516.71-0.65 515.84-1.88 514.96-3.1 513.96-4.7L513.96-4.7 510.26-10.7Q509.61-11.7 509.14-12.4 508.66-13.1 508.16-13.6L508.16-13.6Q507.36-13.6 506.81-13.6 506.26-13.6 505.56-13.6L505.56-13.6 505.56-8.25Q505.56-6.85 505.51-5.6 505.46-4.35 505.36-3.7L505.36-3.7Q505.91-3.75 506.76-3.78 507.61-3.8 508.44-3.83 509.26-3.85 509.61-3.85L509.61-3.85 509.61 0ZM507.96-17.2L507.96-17.2Q510.76-17.2 512.46-18.03 514.16-18.85 514.94-20.53 515.71-22.2 515.71-24.75L515.71-24.75Q515.71-27.15 514.96-28.53 514.21-29.9 513.09-30.58 511.96-31.25 510.81-31.43 509.66-31.6 508.91-31.6L508.91-31.6Q507.86-31.6 507.11-31.35 506.36-31.1 505.96-30.25 505.56-29.4 505.56-27.65L505.56-27.65 505.56-17.4Q506.11-17.35 506.71-17.28 507.31-17.2 507.96-17.2ZM549.36-12.05L546.06-12.05Q546.06-14.15 545.41-15.08 544.76-16 543.63-16.25 542.51-16.5 541.16-16.45L541.16-16.45 539.86-16.4 539.86-8.2Q539.86-6.85 539.81-5.65 539.76-4.45 539.66-3.8L539.66-3.8 546.36-3.8Q547.86-3.8 549.26-4.48 550.66-5.15 551.56-6.73 552.46-8.3 552.46-11L552.46-11 555.71-11 555.46 0 529.06 0 529.06-3.3Q530.21-3.35 530.98-3.6 531.76-3.85 532.18-4.75 532.61-5.65 532.61-7.65L532.61-7.65 532.61-26.8Q532.61-28.15 532.68-29.4 532.76-30.65 532.81-31.3L532.81-31.3Q532.01-31.25 530.81-31.23 529.61-31.2 529.06-31.15L529.06-31.15 529.06-35 554.06-35 554.36-25.3 551.06-25.3Q551.06-28.05 550.11-29.45 549.16-30.85 547.76-31.33 546.36-31.8 545.01-31.75L545.01-31.75 543.21-31.7Q542.16-31.7 541.41-31.43 540.66-31.15 540.26-30.23 539.86-29.3 539.86-27.35L539.86-27.35 539.86-19.85 545.71-19.85 545.51-24.2 549.36-24.2 549.36-12.05ZM593.7-12.05L590.4-12.05Q590.4-14.15 589.75-15.08 589.1-16 587.98-16.25 586.85-16.5 585.5-16.45L585.5-16.45 584.2-16.4 584.2-8.2Q584.2-6.85 584.15-5.65 584.1-4.45 584-3.8L584-3.8 590.7-3.8Q592.2-3.8 593.6-4.48 595-5.15 595.9-6.73 596.8-8.3 596.8-11L596.8-11 600.05-11 599.8 0 573.4 0 573.4-3.3Q574.55-3.35 575.33-3.6 576.1-3.85 576.53-4.75 576.95-5.65 576.95-7.65L576.95-7.65 576.95-26.8Q576.95-28.15 577.03-29.4 577.1-30.65 577.15-31.3L577.15-31.3Q576.35-31.25 575.15-31.23 573.95-31.2 573.4-31.15L573.4-31.15 573.4-35 598.4-35 598.7-25.3 595.4-25.3Q595.4-28.05 594.45-29.45 593.5-30.85 592.1-31.33 590.7-31.8 589.35-31.75L589.35-31.75 587.55-31.7Q586.5-31.7 585.75-31.43 585-31.15 584.6-30.23 584.2-29.3 584.2-27.35L584.2-27.35 584.2-19.85 590.05-19.85 589.85-24.2 593.7-24.2 593.7-12.05ZM635.45 0.5L631.2 0.5 615.2-19.95Q614.55-20.8 613.85-21.75 613.15-22.7 612.45-23.7L612.45-23.7 612.4-23.7 612.5-8.2Q612.5-6.85 612.45-5.6 612.4-4.35 612.3-3.7L612.3-3.7Q613.1-3.8 614.33-3.83 615.55-3.85 616.05-3.85L616.05-3.85 616.05 0 604.65 0 604.65-3.3Q605.8-3.35 606.58-3.6 607.35-3.85 607.78-4.75 608.2-5.65 608.2-7.65L608.2-7.65 608.1-26.8Q608.1-28.15 608.15-29.4 608.2-30.65 608.3-31.3L608.3-31.3Q607.5-31.25 606.28-31.23 605.05-31.2 604.5-31.15L604.5-31.15 604.5-35 612.35-35 627.65-15.7Q628.9-14.1 629.73-12.95 630.55-11.8 631.15-10.95L631.15-10.95 631.2-10.95 631.2-26.8Q631.2-28.15 631.25-29.4 631.3-30.65 631.35-31.3L631.35-31.3Q630.55-31.25 629.35-31.23 628.15-31.2 627.6-31.15L627.6-31.15 627.6-35 639-35 639-31.7Q637.9-31.65 637.1-31.4 636.3-31.15 635.88-30.28 635.45-29.4 635.45-27.35L635.45-27.35 635.45 0.5ZM659.05 0.8L659.05 0.8Q653.65 0.8 649.85-1.58 646.05-3.95 644.05-8 642.05-12.05 642.05-17L642.05-17Q642.05-20.4 643.12-23.75 644.2-27.1 646.35-29.83 648.5-32.55 651.77-34.18 655.05-35.8 659.4-35.8L659.4-35.8Q660.75-35.8 662.45-35.52 664.15-35.25 665.87-34.7 667.6-34.15 668.95-33.35L668.95-33.35 668.75-35.45 672.6-35.45 672.6-23.8 669.35-23.8Q668.9-26.6 667.6-28.45 666.3-30.3 664.35-31.25 662.4-32.2 660.05-32.2L660.05-32.2Q657.45-32.2 655.52-31 653.6-29.8 652.35-27.8 651.1-25.8 650.47-23.25 649.85-20.7 649.85-18L649.85-18Q649.85-13.7 651.05-10.35 652.25-7 654.57-5.08 656.9-3.15 660.3-3.15L660.3-3.15Q661.25-3.15 662.55-3.3 663.85-3.45 665.15-3.75 666.45-4.05 667.35-4.5L667.35-4.5 667.35-9.15Q667.35-10.5 667.42-11.75 667.5-13 667.55-13.65L667.55-13.65Q666.75-13.6 665.55-13.58 664.35-13.55 663.8-13.5L663.8-13.5 663.8-17.35 677.1-17.35 677.1-14.05Q676.25-14 675.62-13.85 675-13.7 674.57-13.28 674.15-12.85 673.95-12 673.75-11.15 673.75-9.7L673.75-9.7 673.75-1.7 672.55-1.7Q671.1-1.7 669.65-1.3 668.2-0.9 666.55-0.4L666.55-0.4Q665 0.05 663.15 0.43 661.3 0.8 659.05 0.8ZM694.8-35L694.8-31.7Q693.7-31.65 692.9-31.4 692.1-31.15 691.67-30.28 691.25-29.4 691.25-27.35L691.25-27.35 691.25-8.2Q691.25-6.85 691.2-5.6 691.15-4.35 691.05-3.7L691.05-3.7Q691.85-3.8 693.07-3.83 694.3-3.85 694.8-3.85L694.8-3.85 694.8 0 680.45 0 680.45-3.3Q681.6-3.35 682.37-3.6 683.15-3.85 683.57-4.75 684-5.65 684-7.65L684-7.65 684-26.8Q684-28.15 684.07-29.4 684.15-30.65 684.2-31.3L684.2-31.3Q683.4-31.25 682.2-31.23 681-31.2 680.45-31.15L680.45-31.15 680.45-35 694.8-35ZM730.64 0.5L726.39 0.5 710.39-19.95Q709.74-20.8 709.04-21.75 708.34-22.7 707.64-23.7L707.64-23.7 707.59-23.7 707.69-8.2Q707.69-6.85 707.64-5.6 707.59-4.35 707.49-3.7L707.49-3.7Q708.29-3.8 709.52-3.83 710.74-3.85 711.24-3.85L711.24-3.85 711.24 0 699.84 0 699.84-3.3Q700.99-3.35 701.77-3.6 702.54-3.85 702.97-4.75 703.39-5.65 703.39-7.65L703.39-7.65 703.29-26.8Q703.29-28.15 703.34-29.4 703.39-30.65 703.49-31.3L703.49-31.3Q702.69-31.25 701.47-31.23 700.24-31.2 699.69-31.15L699.69-31.15 699.69-35 707.54-35 722.84-15.7Q724.09-14.1 724.92-12.95 725.74-11.8 726.34-10.95L726.34-10.95 726.39-10.95 726.39-26.8Q726.39-28.15 726.44-29.4 726.49-30.65 726.54-31.3L726.54-31.3Q725.74-31.25 724.54-31.23 723.34-31.2 722.79-31.15L722.79-31.15 722.79-35 734.19-35 734.19-31.7Q733.09-31.65 732.29-31.4 731.49-31.15 731.07-30.28 730.64-29.4 730.64-27.35L730.64-27.35 730.64 0.5ZM758.74-12.05L755.44-12.05Q755.44-14.15 754.79-15.08 754.14-16 753.02-16.25 751.89-16.5 750.54-16.45L750.54-16.45 749.24-16.4 749.24-8.2Q749.24-6.85 749.19-5.65 749.14-4.45 749.04-3.8L749.04-3.8 755.74-3.8Q757.24-3.8 758.64-4.48 760.04-5.15 760.94-6.73 761.84-8.3 761.84-11L761.84-11 765.09-11 764.84 0 738.44 0 738.44-3.3Q739.59-3.35 740.37-3.6 741.14-3.85 741.57-4.75 741.99-5.65 741.99-7.65L741.99-7.65 741.99-26.8Q741.99-28.15 742.07-29.4 742.14-30.65 742.19-31.3L742.19-31.3Q741.39-31.25 740.19-31.23 738.99-31.2 738.44-31.15L738.44-31.15 738.44-35 763.44-35 763.74-25.3 760.44-25.3Q760.44-28.05 759.49-29.45 758.54-30.85 757.14-31.33 755.74-31.8 754.39-31.75L754.39-31.75 752.59-31.7Q751.54-31.7 750.79-31.43 750.04-31.15 749.64-30.23 749.24-29.3 749.24-27.35L749.24-27.35 749.24-19.85 755.09-19.85 754.89-24.2 758.74-24.2 758.74-12.05ZM789.94-12.05L786.64-12.05Q786.64-14.15 785.99-15.08 785.34-16 784.21-16.25 783.09-16.5 781.74-16.45L781.74-16.45 780.44-16.4 780.44-8.2Q780.44-6.85 780.39-5.65 780.34-4.45 780.24-3.8L780.24-3.8 786.94-3.8Q788.44-3.8 789.84-4.48 791.24-5.15 792.14-6.73 793.04-8.3 793.04-11L793.04-11 796.29-11 796.04 0 769.64 0 769.64-3.3Q770.79-3.35 771.56-3.6 772.34-3.85 772.76-4.75 773.19-5.65 773.19-7.65L773.19-7.65 773.19-26.8Q773.19-28.15 773.26-29.4 773.34-30.65 773.39-31.3L773.39-31.3Q772.59-31.25 771.39-31.23 770.19-31.2 769.64-31.15L769.64-31.15 769.64-35 794.64-35 794.94-25.3 791.64-25.3Q791.64-28.05 790.69-29.45 789.74-30.85 788.34-31.33 786.94-31.8 785.59-31.75L785.59-31.75 783.79-31.7Q782.74-31.7 781.99-31.43 781.24-31.15 780.84-30.23 780.44-29.3 780.44-27.35L780.44-27.35 780.44-19.85 786.29-19.85 786.09-24.2 789.94-24.2 789.94-12.05ZM815.69 0L800.84 0 800.84-3.3Q801.99-3.35 802.76-3.6 803.54-3.85 803.96-4.75 804.39-5.65 804.39-7.65L804.39-7.65 804.39-26.8Q804.39-28.15 804.46-29.4 804.54-30.65 804.59-31.3L804.59-31.3Q803.79-31.25 802.59-31.23 801.39-31.2 800.84-31.15L800.84-31.15 800.84-35Q804.39-35.05 807.94-35.05 811.49-35.05 815.04-35.1L815.04-35.1Q819.44-35.15 822.69-34.1 825.94-33.05 827.69-30.7 829.44-28.35 829.34-24.35L829.34-24.35Q829.29-22.25 828.31-20.35 827.34-18.45 825.41-17 823.49-15.55 820.54-14.7L820.54-14.7Q821.49-14.3 822.41-13.4 823.34-12.5 823.99-11.5L823.99-11.5 826.34-8Q827.44-6.3 828.29-5.3 829.14-4.3 829.99-3.83 830.84-3.35 831.94-3.3L831.94-3.3 831.94 0 823.69 0Q822.79-0.65 821.91-1.88 821.04-3.1 820.04-4.7L820.04-4.7 816.34-10.7Q815.69-11.7 815.21-12.4 814.74-13.1 814.24-13.6L814.24-13.6Q813.44-13.6 812.89-13.6 812.34-13.6 811.64-13.6L811.64-13.6 811.64-8.25Q811.64-6.85 811.59-5.6 811.54-4.35 811.44-3.7L811.44-3.7Q811.99-3.75 812.84-3.78 813.69-3.8 814.51-3.83 815.34-3.85 815.69-3.85L815.69-3.85 815.69 0ZM814.04-17.2L814.04-17.2Q816.84-17.2 818.54-18.03 820.24-18.85 821.01-20.53 821.79-22.2 821.79-24.75L821.79-24.75Q821.79-27.15 821.04-28.53 820.29-29.9 819.16-30.58 818.04-31.25 816.89-31.43 815.74-31.6 814.99-31.6L814.99-31.6Q813.94-31.6 813.19-31.35 812.44-31.1 812.04-30.25 811.64-29.4 811.64-27.65L811.64-27.65 811.64-17.4Q812.19-17.35 812.79-17.28 813.39-17.2 814.04-17.2Z" opacity="1" transform="matrix(1,0,0,1,0,0)" fill="#ffffff" class="wordmark-text-0" data-fill-palette-color="primary" id="text-0"></path></svg></g></svg></g><g transform="matrix(1,0,0,1,86.85522601114253,26.501926691820774)"><svg viewBox="0 0 127.63811940628634 10.961672719260331" height="10.961672719260331" width="127.63811940628634"><g transform="matrix(1,0,0,1,0,0)"><svg width="127.63811940628634" viewBox="-3.95 -47.95 635.5300000000001 55.5" height="10.961672719260331" data-palette-color="#ffffff"><path d="M14.7 0L3.05 0 3.05-40.5 13-40.5Q15.7-40.5 17.88-40 20.05-39.5 21.63-38.33 23.2-37.15 24.05-35.15 24.9-33.15 24.9-30.1L24.9-30.1Q24.9-27.65 24.23-25.9 23.55-24.15 22.25-23.13 20.95-22.1 19-21.75L19-21.75Q21.4-21.35 22.98-20.08 24.55-18.8 25.33-16.75 26.1-14.7 26.1-11.8L26.1-11.8Q26.1-8.9 25.38-6.68 24.65-4.45 23.23-2.98 21.8-1.5 19.68-0.75 17.55 0 14.7 0L14.7 0ZM10.45-18.85L10.45-5.2 13.25-5.2Q16.6-5.2 17.8-6.83 19-8.45 19-11.85L19-11.85Q19-14.3 18.43-15.83 17.85-17.35 16.53-18.1 15.2-18.85 13-18.85L13-18.85 10.45-18.85ZM10.45-35.35L10.45-23.95 12.95-23.95Q15.15-23.95 16.35-24.6 17.55-25.25 18.03-26.6 18.5-27.95 18.5-30L18.5-30Q18.5-32.15 17.78-33.33 17.05-34.5 15.6-34.93 14.15-35.35 11.9-35.35L11.9-35.35 10.45-35.35ZM38.3 0L30.9 0 30.9-40.5 40.6-40.5Q44.7-40.5 47.52-39.53 50.35-38.55 51.82-36.2 53.3-33.85 53.3-29.8L53.3-29.8Q53.3-27.35 52.85-25.4 52.4-23.45 51.32-22.08 50.25-20.7 48.35-19.95L48.35-19.95 54 0 46.6 0 41.7-18.55 38.3-18.55 38.3 0ZM38.3-35.45L38.3-23.2 40.6-23.2Q42.75-23.2 44.02-23.83 45.3-24.45 45.85-25.83 46.4-27.2 46.4-29.35L46.4-29.35Q46.4-32.4 45.27-33.93 44.15-35.45 41-35.45L41-35.45 38.3-35.45ZM66.34 0L59.05 0 59.05-40.5 66.34-40.5 66.34 0ZM78.89 0L72.59 0 72.59-40.5 77.74-40.5 87.59-17.4 87.59-40.5 93.69-40.5 93.69 0 88.79 0 78.89-24.2 78.89 0ZM109.99 0.55L109.99 0.55Q105.99 0.55 103.64-1.15 101.29-2.85 100.27-5.98 99.24-9.1 99.24-13.35L99.24-13.35 99.24-26.95Q99.24-31.3 100.24-34.45 101.24-37.6 103.77-39.28 106.29-40.95 110.74-40.95L110.74-40.95Q114.89-40.95 117.34-39.55 119.79-38.15 120.87-35.52 121.94-32.9 121.94-29.15L121.94-29.15 121.94-27.05 114.89-27.05 114.89-29.35Q114.89-31.3 114.62-32.7 114.34-34.1 113.52-34.83 112.69-35.55 110.84-35.55L110.84-35.55Q108.89-35.55 108.02-34.6 107.14-33.65 106.92-32.1 106.69-30.55 106.69-28.7L106.69-28.7 106.69-11.75Q106.69-9.65 107.04-8.1 107.39-6.55 108.34-5.73 109.29-4.9 111.04-4.9L111.04-4.9Q112.84-4.9 113.79-5.8 114.74-6.7 115.12-8.3 115.49-9.9 115.49-12.1L115.49-12.1 115.49-15.9 111.14-15.9 111.14-20.55 122.14-20.55 122.14 0 117.39 0 116.84-4Q116.04-2 114.42-0.73 112.79 0.55 109.99 0.55ZM152.64 0L145.59 0 145.59-15.45 137.39-40.5 144.29-40.5 149.29-24.45 153.99-40.5 160.74-40.5 152.64-15.45 152.64 0ZM174.88 0.55L174.88 0.55Q170.58 0.55 168.03-1.05 165.48-2.65 164.38-5.65 163.28-8.65 163.28-12.75L163.28-12.75 163.28-27.9Q163.28-32 164.38-34.93 165.48-37.85 168.03-39.4 170.58-40.95 174.88-40.95L174.88-40.95Q179.28-40.95 181.81-39.4 184.33-37.85 185.46-34.93 186.58-32 186.58-27.9L186.58-27.9 186.58-12.7Q186.58-8.65 185.46-5.68 184.33-2.7 181.81-1.07 179.28 0.55 174.88 0.55ZM174.88-4.9L174.88-4.9Q176.73-4.9 177.61-5.7 178.48-6.5 178.78-7.9 179.08-9.3 179.08-10.95L179.08-10.95 179.08-29.6Q179.08-31.3 178.78-32.65 178.48-34 177.61-34.77 176.73-35.55 174.88-35.55L174.88-35.55Q173.13-35.55 172.23-34.77 171.33-34 171.03-32.65 170.73-31.3 170.73-29.6L170.73-29.6 170.73-10.95Q170.73-9.3 171.01-7.9 171.28-6.5 172.18-5.7 173.08-4.9 174.88-4.9ZM203.13 0.55L203.13 0.55Q198.63 0.55 196.13-1.1 193.63-2.75 192.68-5.8 191.73-8.85 191.73-13.1L191.73-13.1 191.73-40.5 198.93-40.5 198.93-12.25Q198.93-10.35 199.18-8.68 199.43-7 200.36-5.98 201.28-4.95 203.13-4.95L203.13-4.95Q205.08-4.95 205.96-5.98 206.83-7 207.11-8.68 207.38-10.35 207.38-12.25L207.38-12.25 207.38-40.5 214.53-40.5 214.53-13.1Q214.53-8.85 213.58-5.8 212.63-2.75 210.16-1.1 207.68 0.55 203.13 0.55ZM227.73 0L220.33 0 220.33-40.5 230.03-40.5Q234.13-40.5 236.95-39.53 239.78-38.55 241.25-36.2 242.73-33.85 242.73-29.8L242.73-29.8Q242.73-27.35 242.28-25.4 241.83-23.45 240.75-22.08 239.68-20.7 237.78-19.95L237.78-19.95 243.43 0 236.03 0 231.13-18.55 227.73-18.55 227.73 0ZM227.73-35.45L227.73-23.2 230.03-23.2Q232.18-23.2 233.45-23.83 234.73-24.45 235.28-25.83 235.83-27.2 235.83-29.35L235.83-29.35Q235.83-32.4 234.7-33.93 233.58-35.45 230.43-35.45L230.43-35.45 227.73-35.45ZM265.87 0L260.32 0 261.02-40.5 268.67-40.5 274.42-12.45 280.42-40.5 287.82-40.5 288.57 0 283.07 0 282.47-28.15 276.72 0 272.27 0 266.42-28.25 265.87 0ZM301.77 0L294.47 0 294.47-40.5 301.77-40.5 301.77 0ZM314.32 0L308.02 0 308.02-40.5 313.17-40.5 323.02-17.4 323.02-40.5 329.12-40.5 329.12 0 324.22 0 314.32-24.2 314.32 0ZM345.12 0L335.27 0 335.27-40.5 344.82-40.5Q349.77-40.5 352.54-39.15 355.32-37.8 356.49-35 357.67-32.2 357.67-27.9L357.67-27.9 357.67-13.1Q357.67-8.7 356.49-5.78 355.32-2.85 352.59-1.43 349.87 0 345.12 0L345.12 0ZM342.67-35.25L342.67-5.15 344.92-5.15Q347.47-5.15 348.57-6.05 349.67-6.95 349.92-8.68 350.17-10.4 350.17-12.9L350.17-12.9 350.17-28.4Q350.17-30.85 349.82-32.35 349.47-33.85 348.37-34.55 347.27-35.25 344.82-35.25L344.82-35.25 342.67-35.25ZM386.71 0L379.31 0 379.31-35.05 372.86-35.05 372.86-40.5 393.06-40.5 393.06-35.05 386.71-35.05 386.71 0ZM407.56 0.55L407.56 0.55Q403.26 0.55 400.71-1.05 398.16-2.65 397.06-5.65 395.96-8.65 395.96-12.75L395.96-12.75 395.96-27.9Q395.96-32 397.06-34.93 398.16-37.85 400.71-39.4 403.26-40.95 407.56-40.95L407.56-40.95Q411.96-40.95 414.48-39.4 417.01-37.85 418.13-34.93 419.26-32 419.26-27.9L419.26-27.9 419.26-12.7Q419.26-8.65 418.13-5.68 417.01-2.7 414.48-1.07 411.96 0.55 407.56 0.55ZM407.56-4.9L407.56-4.9Q409.41-4.9 410.28-5.7 411.16-6.5 411.46-7.9 411.76-9.3 411.76-10.95L411.76-10.95 411.76-29.6Q411.76-31.3 411.46-32.65 411.16-34 410.28-34.77 409.41-35.55 407.56-35.55L407.56-35.55Q405.81-35.55 404.91-34.77 404.01-34 403.71-32.65 403.41-31.3 403.41-29.6L403.41-29.6 403.41-10.95Q403.41-9.3 403.68-7.9 403.96-6.5 404.86-5.7 405.76-4.9 407.56-4.9ZM444.25 0L436.85 0 436.85-40.5 448.75-40.5Q452.4-40.5 454.68-39.15 456.95-37.8 458.03-35.23 459.1-32.65 459.1-29L459.1-29Q459.1-25.05 457.75-22.63 456.4-20.2 453.98-19.1 451.55-18 448.25-18L448.25-18 444.25-18 444.25 0ZM444.25-35.3L444.25-23.2 447.05-23.2Q449.05-23.2 450.18-23.78 451.3-24.35 451.73-25.63 452.15-26.9 452.15-29.05L452.15-29.05Q452.15-31.25 451.83-32.63 451.5-34 450.43-34.65 449.35-35.3 447.05-35.3L447.05-35.3 444.25-35.3ZM470.45 0L463.1 0 463.1-40.5 470.45-40.5 470.45-23.55 478.7-23.55 478.7-40.5 486.1-40.5 486.1 0 478.7 0 478.7-18.3 470.45-18.3 470.45 0ZM505 0L497.95 0 497.95-15.45 489.75-40.5 496.65-40.5 501.65-24.45 506.35-40.5 513.1-40.5 505-15.45 505 0ZM526.64 0.55L526.64 0.55Q523 0.55 520.54-0.88 518.1-2.3 516.85-5.05 515.6-7.8 515.44-11.8L515.44-11.8 521.79-13.05Q521.89-10.7 522.37-8.9 522.85-7.1 523.82-6.13 524.79-5.15 526.39-5.15L526.39-5.15Q528.19-5.15 528.94-6.23 529.69-7.3 529.69-8.95L529.69-8.95Q529.69-11.6 528.5-13.3 527.29-15 525.29-16.7L525.29-16.7 520.19-21.2Q518.04-23.05 516.77-25.33 515.5-27.6 515.5-30.95L515.5-30.95Q515.5-35.75 518.29-38.35 521.1-40.95 525.94-40.95L525.94-40.95Q528.79-40.95 530.69-40.08 532.6-39.2 533.72-37.65 534.85-36.1 535.39-34.13 535.94-32.15 536.1-29.95L536.1-29.95 529.79-28.85Q529.69-30.75 529.37-32.25 529.04-33.75 528.22-34.6 527.39-35.45 525.79-35.45L525.79-35.45Q524.14-35.45 523.27-34.38 522.39-33.3 522.39-31.7L522.39-31.7Q522.39-29.65 523.25-28.33 524.1-27 525.69-25.6L525.69-25.6 530.75-21.15Q533.25-19.05 535.02-16.23 536.79-13.4 536.79-9.4L536.79-9.4Q536.79-6.5 535.52-4.25 534.25-2 531.97-0.73 529.69 0.55 526.64 0.55ZM548.24 0L540.94 0 540.94-40.5 548.24-40.5 548.24 0ZM565.39 0.55L565.39 0.55Q560.94 0.55 558.41-1.2 555.89-2.95 554.89-5.98 553.89-9 553.89-12.95L553.89-12.95 553.89-27.4Q553.89-31.55 554.89-34.6 555.89-37.65 558.41-39.3 560.94-40.95 565.39-40.95L565.39-40.95Q569.59-40.95 571.96-39.53 574.34-38.1 575.34-35.45 576.34-32.8 576.34-29.3L576.34-29.3 576.34-25.9 569.24-25.9 569.24-29.4Q569.24-31.1 569.06-32.5 568.89-33.9 568.11-34.73 567.34-35.55 565.44-35.55L565.44-35.55Q563.54-35.55 562.66-34.68 561.79-33.8 561.54-32.33 561.29-30.85 561.29-29L561.29-29 561.29-11.4Q561.29-9.2 561.64-7.78 561.99-6.35 562.91-5.63 563.84-4.9 565.44-4.9L565.44-4.9Q567.29-4.9 568.06-5.78 568.84-6.65 569.04-8.1 569.24-9.55 569.24-11.35L569.24-11.35 569.24-15 576.34-15 576.34-11.75Q576.34-8.15 575.39-5.38 574.44-2.6 572.06-1.03 569.69 0.55 565.39 0.55ZM586.39 0L579.44 0 587.54-40.5 595.44-40.5 603.54 0 596.69 0 595.09-9.35 588.04-9.35 586.39 0ZM591.54-31.05L588.79-14.05 594.29-14.05 591.54-31.05ZM624.58 0L607.38 0 607.38-40.5 614.78-40.5 614.78-5.1 624.58-5.1 624.58 0Z" opacity="1" transform="matrix(1,0,0,1,0,0)" fill="#ffffff" class="slogan-text-1" data-fill-palette-color="secondary" id="text-1"></path></svg></g></svg></g></svg></g></svg></g><g></g></svg></g></svg></g></svg></g><g mask="url(#00916ece-7322-4f5c-a1f6-fe838e0fb399)"><g transform="matrix(2.675395526459356, 0, 0, 2.675395526459356, 98.80514566284778, 1)"><svg xmlns="http://www.w3.org/2000/svg" xmlns:xlink="http://www.w3.org/1999/xlink" version="1.1" x="0" y="0" viewBox="13.055999999999997 3.853999999999992 73.974 91.65" enable-background="new 0 0 100 100" xml:space="preserve" height="91.65" width="73.974" class="icon-none" data-fill-palette-color="accent" id="none"><g fill="#0df7f3" data-fill-palette-color="accent"><path fill="none" d="M49.955 40.819c6.486 0 11.826-7.164 12.517-16.367 0.087-0.595 0.134-1.203 0.141-1.821l-2.023 2.326c1.117-2.473-2.86-8.769-2.86-8.769-6.703 4.85-16.671 0-16.671 0-3.007 1.187-1.583 9.646-1.583 9.646-0.75-0.522-1.438-0.796-2-0.937C38.302 33.889 43.574 40.819 49.955 40.819z"></path><g fill="#0df7f3" data-fill-palette-color="accent"><path fill="none" d="M23.224 51.659h-6.299c-1.941 0-3.515 1.556-3.515 3.473l7.096 32.391c0 1.92 1.573 3.474 3.514 3.474h52.045c1.941 0 3.514-1.557 3.514-3.474l7.095-32.391c0-1.917-1.572-3.472-3.513-3.472h-6.145M50.043 73.526c-1.042 0-1.886-0.845-1.886-1.885 0-1.043 0.844-1.888 1.886-1.888s1.885 0.845 1.885 1.888C51.928 72.681 51.084 73.526 50.043 73.526z"></path><path fill="none" d="M55.097 51.659h-3.455"></path><path fill="#0df7f3" d="M61.563 40.629c-0.038 1.726-3.054 6.313-6.049 10.453h21.227C73.913 45.337 68.242 41.24 61.563 40.629z" data-fill-palette-color="accent"></path><path fill="#0df7f3" d="M51.407 48.281c1.323-0.684 2.35-2.109 2.35-3.558 0 0-1.97 0.871-3.978 0.871-2.008 0-3.979-0.871-3.979-0.871 0 1.448 1.026 2.872 2.351 3.558l-0.196 2.802h3.646L51.407 48.281z" data-fill-palette-color="accent"></path><path fill="#0df7f3" d="M38.68 40.629c-6.681 0.61-12.35 4.707-15.181 10.453h20.702C41.47 46.942 38.718 42.355 38.68 40.629z" data-fill-palette-color="accent"></path><g fill="#0df7f3" data-fill-palette-color="accent"><circle fill="#0df7f3" cx="50.043" cy="71.639" r="1.9" data-fill-palette-color="accent"></circle><path fill="#0df7f3" d="M79.831 92.466H20.255c-0.837 0-1.518 0.681-1.518 1.519s0.68 1.519 1.518 1.519h59.576c0.839 0 1.518-0.681 1.518-1.519S80.669 92.466 79.831 92.466z" data-fill-palette-color="accent"></path></g><path fill="#0df7f3" d="M55.097 51.659c0.138-0.191 0.277-0.383 0.417-0.575h-3.912l0.04 0.575H55.097z" data-fill-palette-color="accent"></path><path fill="#0df7f3" d="M47.914 51.659l0.042-0.575h-3.754c0.127 0.194 0.254 0.384 0.382 0.575H47.914z" data-fill-palette-color="accent"></path><path fill="#0df7f3" d="M23.699 91.57h52.687c1.96 0 3.548-1.588 3.548-3.548l7.096-33.391c0-1.959-1.587-3.548-3.548-3.548h-6.74c0.096 0.189 0.188 0.381 0.275 0.575h6.146c1.94 0 3.514 1.556 3.514 3.473l-7.098 32.391c0 1.92-1.57 3.474-3.514 3.474H24.02c-1.941 0-3.514-1.557-3.514-3.474l-7.097-32.391c0-1.919 1.574-3.473 3.515-3.473h6.3c0.087-0.194 0.182-0.386 0.275-0.575h-6.896c-1.959 0-3.547 1.589-3.547 3.548l7.095 33.391C20.15 89.982 21.739 91.57 23.699 91.57z" data-fill-palette-color="accent"></path><path fill="#0df7f3" d="M44.583 51.659c-0.127-0.191-0.255-0.382-0.382-0.575H23.499c-0.094 0.189-0.188 0.381-0.275 0.575H44.583z" data-fill-palette-color="accent"></path><polygon fill="#0df7f3" points="51.642,51.659 51.602,51.083 47.954,51.083 47.914,51.659   " data-fill-palette-color="accent"></polygon><path fill="#0df7f3" d="M77.017 51.659c-0.088-0.194-0.18-0.386-0.275-0.575H55.514c-0.14 0.193-0.279 0.386-0.417 0.575H77.017z" data-fill-palette-color="accent"></path></g><g fill="#0df7f3" data-fill-palette-color="accent"><g fill="#0df7f3" data-fill-palette-color="accent"><path fill="#0df7f3" d="M36.011 23.006h0.008 0.322c-0.001 0.099-0.005 0.198-0.005 0.298 0 0.303 0.011 0.602 0.028 0.898 0.026 0.434 0.067 0.863 0.128 1.287 0.01 0.13 0.021 0.257 0.032 0.386 0.863 9.758 6.571 17.297 13.489 17.297 7.005 0 12.772-7.736 13.518-17.678 0.104-0.713 0.158-1.445 0.158-2.189 0-0.1-0.003-0.199-0.006-0.297h0.381 0.009c1.129 0 3.831-0.916 3.831-2.044 0-1.13-2.702-2.044-3.831-2.044h-0.009c-0.752-5.202-4.104-10.308-8.898-12.582l-0.275 3.654-0.195 2.359-0.355-0.007 0.185-2.629 0.259-3.673 0.052-0.756-2.24-0.096-0.003 0.09-0.121 3.862-0.098 3.117-0.007 0.184-0.178 5.723H51.8l0.249-9.095 0.107-3.884 0.037-1.333H47.28l0.041 1.469 0.104 3.846 0.247 8.998h-0.388l-0.179-5.728-0.006-0.184-0.094-2.995-0.119-3.817-0.008-0.256-2.329 0.1 0.076 1.089 0.252 3.588 0.166 2.381-0.356 0.007-0.175-2.104L44.245 6.68c-4.455 2.435-7.509 7.284-8.225 12.239h-0.008c-1.129 0-3.831 0.915-3.831 2.044C32.181 22.092 34.882 23.006 36.011 23.006zM39.758 23.006h20.158c0.365 1.173 0.519 2.288 0.181 3.034l1.919-2.204c-0.007 0.583-0.053 1.162-0.133 1.724C61.228 34.29 56.165 41.08 50.014 41.08c-6.051 0-11.049-6.572-11.835-15.096 0.533 0.133 1.186 0.392 1.897 0.888C40.076 26.872 39.769 25.042 39.758 23.006z" data-fill-palette-color="accent"></path></g></g></g></svg></g></g></svg></g><defs></defs></svg><rect width="395.52" height="247.2" fill="none" stroke="none" visibility="hidden"></rect></g></svg></g></svg>